<svg width="51" height="50" viewBox="0 0 51 50" fill="none" xmlns="http://www.w3.org/2000/svg">
<path d="M49.3233 30.8556C46.005 44.1657 32.524 52.266 19.2123 48.9469C5.90611 45.6286 -2.19418 32.1467 1.12555 18.8377C4.44237 5.52608 17.9234 -2.57482 31.231 0.743458C44.5417 4.06174 52.6416 17.5451 49.3229 30.8558L49.3232 30.8556H49.3233Z" fill="#F3BA2F"/>
<path fill-rule="evenodd" clip-rule="evenodd" d="M25.2268 15.7685L18.7932 22.202L18.7933 22.2018L15.0501 18.4584L25.2268 8.28174L35.4067 18.4614L31.6634 22.2048L25.2268 15.7685ZM12.4067 21.1013L8.66321 24.8453L12.4064 28.588L16.1499 24.8445L12.4067 21.1013ZM18.7932 27.489L25.2268 33.9221L31.6633 27.4859L35.4086 31.2273L35.4068 31.2293L25.2268 41.4089L15.0501 31.2322L15.0448 31.2269L18.7932 27.489ZM38.0471 21.1034L34.3036 24.8469L38.047 28.5901L41.7904 24.8466L38.0471 21.1034Z" fill="white"/>
<path d="M29.0234 24.8433H29.025L25.2267 21.0448L22.4193 23.8515L22.0968 24.1741L21.4316 24.8394L21.4263 24.8446L21.4316 24.85L25.2267 28.6458L29.0252 24.8473L29.0271 24.8451L29.0236 24.8433" fill="white"/>
</svg>
