<svg width="50" height="50" viewBox="0 0 50 50" fill="none" xmlns="http://www.w3.org/2000/svg">
<path d="M48.9474 30.8556C45.6291 44.1657 32.1481 52.266 18.8364 48.9469C5.53026 45.6286 -2.57004 32.1467 0.749697 18.8377C4.06652 5.52608 17.5475 -2.57482 30.8551 0.743458C44.1659 4.06174 52.2657 17.5451 48.9471 30.8558L48.9473 30.8556H48.9474Z" fill="#F7931A"/>
<path fill-rule="evenodd" clip-rule="evenodd" d="M35.8039 21.3055C36.2984 17.9991 33.7811 16.2218 30.339 15.0362L31.4557 10.5574L28.7293 9.87807L27.6423 14.2389C26.9255 14.0602 26.1895 13.8917 25.4579 13.7247L26.5528 9.33511L23.8281 8.65576L22.7109 13.1331C22.1177 12.998 21.5352 12.8646 20.97 12.7239L20.9732 12.7099L17.2134 11.771L16.4882 14.6829C16.4882 14.6829 18.5109 15.1466 18.4683 15.1751C19.5723 15.4507 19.772 16.1815 19.7388 16.7608L18.4668 21.8632C18.5429 21.8825 18.6415 21.9104 18.7503 21.9541L18.6711 21.9344L18.671 21.9343C18.6038 21.9175 18.5339 21.9 18.4621 21.8828L16.6792 29.0305C16.5443 29.366 16.2018 29.8693 15.4299 29.6782C15.4573 29.7178 13.4484 29.1837 13.4484 29.1837L12.0948 32.3045L15.6427 33.189C16.0312 33.2864 16.4152 33.3865 16.7952 33.4855C17.0608 33.5548 17.3245 33.6235 17.5865 33.6905L16.4583 38.2207L19.1815 38.9L20.2988 34.418C21.0427 34.6199 21.7647 34.8062 22.4715 34.9818L21.358 39.4427L24.0845 40.1221L25.2126 35.6004C29.8616 36.4803 33.3573 36.1255 34.8287 31.9205C36.0143 28.5349 34.7697 26.5822 32.3238 25.3087C34.1053 24.8979 35.4471 23.7262 35.8049 21.3059L35.804 21.3053L35.8039 21.3055ZM29.5748 30.0403C28.8017 33.1465 23.9398 31.8623 21.7153 31.2748L21.7151 31.2747C21.515 31.2219 21.3363 31.1747 21.1839 31.1368L22.681 25.1352C22.8669 25.1816 23.094 25.2325 23.3513 25.2903L23.3514 25.2903C25.6524 25.8067 30.3668 26.8647 29.5749 30.0403H29.5748ZM23.8129 22.5048C25.6675 22.9998 29.7134 24.0795 30.418 21.2564H30.4182C31.1377 18.3691 27.2058 17.4986 25.2855 17.0735C25.0695 17.0256 24.8789 16.9834 24.7233 16.9447L23.3659 22.3878C23.4941 22.4197 23.6445 22.4599 23.8129 22.5048Z" fill="white"/>
</svg>
