<svg width="281" height="281" viewBox="0 0 281 281" fill="none" xmlns="http://www.w3.org/2000/svg">
<g filter="url(#filter0_d)">
<path d="M237.994 160.804C224.566 214.672 169.989 247.417 116.198 233.989C62.3285 220.561 29.5827 165.986 43.0108 112.196C56.439 58.328 110.937 25.5829 164.806 39.0107C218.598 52.3601 251.422 106.935 237.994 160.804Z" fill="url(#paint0_linear)"/>
<path d="M188.351 123.977C190.314 110.629 180.186 103.406 166.21 98.6162L170.764 80.4791L159.772 77.7311L155.375 95.3971C152.47 94.6904 149.486 93.9838 146.502 93.3557L150.899 75.6111L139.907 72.8631L135.432 90.9217C132.998 90.3721 130.642 89.8225 128.365 89.2729V89.1943L113.133 85.4256L110.228 97.2029C110.228 97.2029 118.394 99.0873 118.237 99.1658C122.712 100.265 123.497 103.249 123.34 105.604L118.158 126.254C118.472 126.332 118.865 126.411 119.336 126.646C118.943 126.568 118.551 126.489 118.158 126.332L110.935 155.226C110.385 156.561 108.972 158.602 105.91 157.817C105.988 157.974 97.9012 155.854 97.9012 155.854L92.4052 168.495L106.774 172.107C109.443 172.813 112.034 173.442 114.625 174.148L110.071 192.442L121.063 195.19L125.617 177.053C128.601 177.838 131.584 178.624 134.411 179.33L129.936 197.389L140.928 200.137L145.482 181.843C164.325 185.376 178.458 183.963 184.347 166.925C189.136 153.263 184.111 145.333 174.218 140.151C181.52 138.502 186.938 133.713 188.351 123.977ZM163.148 159.309C159.772 172.971 136.688 165.59 129.229 163.706L135.275 139.444C142.734 141.329 166.759 145.019 163.148 159.309ZM166.602 123.741C163.462 136.225 144.304 129.865 138.101 128.295L143.597 106.311C149.8 107.881 169.822 110.786 166.602 123.741Z" fill="white"/>
</g>
<defs>
<filter id="filter0_d" x="0" y="0" width="281" height="281" filterUnits="userSpaceOnUse" color-interpolation-filters="sRGB">
<feFlood flood-opacity="0" result="BackgroundImageFix"/>
<feColorMatrix in="SourceAlpha" type="matrix" values="0 0 0 0 0 0 0 0 0 0 0 0 0 0 0 0 0 0 127 0" result="hardAlpha"/>
<feOffset dy="4"/>
<feGaussianBlur stdDeviation="20"/>
<feComposite in2="hardAlpha" operator="out"/>
<feColorMatrix type="matrix" values="0 0 0 0 0.976471 0 0 0 0 0.666667 0 0 0 0 0.294118 0 0 0 0.44 0"/>
<feBlend mode="normal" in2="BackgroundImageFix" result="effect1_dropShadow"/>
<feBlend mode="normal" in="SourceGraphic" in2="effect1_dropShadow" result="shape"/>
</filter>
<linearGradient id="paint0_linear" x1="140.446" y1="35.9527" x2="140.446" y2="236.98" gradientUnits="userSpaceOnUse">
<stop stop-color="#F9AA4B"/>
<stop offset="1" stop-color="#F7931A"/>
</linearGradient>
</defs>
</svg>
