<svg width="25" height="27" viewBox="0 0 25 27" fill="none" xmlns="http://www.w3.org/2000/svg">
<path fill-rule="evenodd" clip-rule="evenodd" d="M20.5133 15.3559C20.699 16.4702 20.8847 17.3988 21.2561 18.5131L22.3704 21.6702L21.4419 22.9702H14.9419C14.9419 23.8988 14.5704 24.8274 13.8276 25.5702C13.0847 26.3131 12.1561 26.6845 11.2276 26.6845C10.299 26.6845 9.18472 26.3131 8.62757 25.5702C7.88472 24.8274 7.51329 23.8988 7.51329 22.9702H1.01329L0.0847168 21.6702L1.199 18.5131C1.57043 17.0274 1.94186 15.5417 1.94186 14.0559V9.97022C1.94186 8.67022 2.12757 7.37022 2.68472 6.25594C3.24186 4.95594 3.98472 4.02737 4.91329 3.09879C5.84186 2.17022 6.95615 1.61308 8.25615 1.24165C9.18472 0.870223 10.299 0.684509 11.2276 0.684509C10.8561 1.24165 10.4847 1.98451 10.1133 2.72737C9.74186 2.72737 9.37043 2.72737 8.81329 3.09879C7.88472 3.28451 6.95615 3.84165 6.21329 4.58451C5.47043 5.14165 4.72757 6.07022 4.35615 6.9988C3.98472 7.92737 3.799 8.85594 3.799 9.97022V14.0559C3.799 15.7274 3.42757 17.3988 3.05615 19.0702L2.31329 21.1131H20.1419L19.399 19.0702C19.074 18.0934 18.8901 16.9717 18.7249 15.9614L18.6561 15.5417C19.399 15.5417 19.9561 15.5417 20.5133 15.3559ZM11.2276 24.8274C11.599 24.8274 12.1561 24.6417 12.5276 24.2702C12.899 23.8988 13.0847 23.5274 13.0847 22.9702H9.37043C9.37043 23.5274 9.55615 23.8988 9.92757 24.2702C10.299 24.6417 10.8561 24.8274 11.2276 24.8274ZM24.2276 6.25594C24.2276 7.73357 23.6406 9.15069 22.5957 10.1955C21.5509 11.2404 20.1338 11.8274 18.6561 11.8274C17.1785 11.8274 15.7614 11.2404 14.7165 10.1955C13.6717 9.15069 13.0847 7.73357 13.0847 6.25594C13.0847 4.7783 13.6717 3.36119 14.7165 2.31634C15.7614 1.2715 17.1785 0.684509 18.6561 0.684509C20.1338 0.684509 21.5509 1.2715 22.5957 2.31634C23.6406 3.36119 24.2276 4.7783 24.2276 6.25594Z" fill="#E5E5E5"/>
</svg>
