<svg width="134" height="29" viewBox="0 0 134 29" fill="none" xmlns="http://www.w3.org/2000/svg">
<path d="M113.873 15.5885V12.5965H109.646V15.5885H107.01L112.021 5.37769H107.319L102.356 15.5885V19.4592H109.646V22H113.873V19.4592H115.535V15.5885H113.873ZM119.746 13.5464C120.957 13.5464 121.978 13.1427 122.809 12.3116C123.64 11.4805 124.068 10.4831 124.068 9.27206C124.068 8.08475 123.664 7.08741 122.833 6.2563C122.002 5.42518 120.981 5.0215 119.746 5.0215C118.511 5.0215 117.466 5.42518 116.635 6.2563C115.804 7.08741 115.377 8.08475 115.377 9.27206C115.377 10.4594 115.804 11.4805 116.635 12.3116C117.466 13.1427 118.511 13.5464 119.746 13.5464ZM119.485 20.314L130.432 8.46469L128.77 7.51485L117.846 19.3879L119.485 20.314ZM119.722 10.5306C119.034 10.5306 118.511 10.0082 118.511 9.27206C118.511 8.58342 119.034 8.03726 119.722 8.03726C121.337 7.91853 121.337 10.6256 119.722 10.5306ZM128.936 22.3324C130.147 22.3324 131.168 21.9288 131.999 21.0976C132.83 20.2665 133.258 19.2692 133.258 18.0819C133.258 16.8946 132.854 15.8972 132.023 15.0661C131.192 14.235 130.171 13.8076 128.936 13.8076C127.677 13.8076 126.632 14.2113 125.801 15.0424C124.97 15.8735 124.566 16.8708 124.566 18.0819C124.566 19.2692 124.97 20.2665 125.801 21.0976C126.632 21.9288 127.677 22.3324 128.936 22.3324ZM130.123 18.0819C130.123 18.7468 129.601 19.3167 128.912 19.3167C128.223 19.3167 127.701 18.7705 127.701 18.0819C127.701 17.3458 128.223 16.8233 128.912 16.8233C129.601 16.8233 130.123 17.3458 130.123 18.0819Z" fill="#00FF19"/>
<path d="M1 16L8 27L23 16L35 27L54 8L68 16L87 1" stroke="#00FF19" stroke-width="2"/>
</svg>
