<svg width="50" height="50" viewBox="0 0 50 50" fill="none" xmlns="http://www.w3.org/2000/svg">
<circle cx="24.9175" cy="24.8454" r="24.8454" fill="#988430"/>
<circle cx="24.9174" cy="24.8454" r="24.0495" fill="#7A6A2A"/>
<circle cx="24.9174" cy="24.8454" r="23.5428" fill="#BA9F33"/>
<path fill-rule="evenodd" clip-rule="evenodd" d="M10.9348 22.1921C10.7941 22.0635 10.6454 21.9347 10.5087 21.8062C10.3719 21.6777 10.2315 21.5489 10.0907 21.4203L9.67253 21.0228C9.60416 20.9544 9.53181 20.8943 9.46344 20.8256C9.39506 20.7655 9.31476 20.6971 9.24639 20.6367C8.69144 20.1101 8.13331 19.5835 7.58605 19.0566C8.15293 19.5753 8.70787 20.0902 9.27474 20.6165L9.47165 20.8137C9.54003 20.8818 9.61238 20.9422 9.68075 21.0106L10.0987 21.3965C10.2394 21.525 10.3762 21.6538 10.5169 21.794C10.6576 21.9342 10.7944 22.0633 10.9351 22.1915L10.9348 22.1921ZM3.56971 22.1126C3.56971 22.1126 5.58782 22.3214 6.57289 22.4621C7.48534 22.5909 10.3398 23.029 10.3398 23.029L3.56971 22.1126ZM3.56972 22.1126C4.13659 22.1608 4.70347 22.2209 5.27034 22.2814C5.55974 22.3095 5.83721 22.3415 6.11468 22.3696L6.54057 22.4181C6.68129 22.438 6.81804 22.4581 6.95876 22.4783L8.64745 22.7475L9.49153 22.8883C9.76901 22.9365 10.0465 22.989 10.3359 23.0372C10.0584 23.0091 9.76901 22.9688 9.49153 22.9285L8.64745 22.808L6.95876 22.5588C6.81804 22.5387 6.68129 22.5103 6.54057 22.4905L6.11442 22.4414C5.83695 22.4134 5.54755 22.3731 5.27007 22.3407C4.7032 22.2726 4.13633 22.2 3.56946 22.1118L3.56972 22.1126ZM10.139 23.5548C10.139 23.5548 7.98411 24.1018 7.25637 24.3109C6.54082 24.5078 4.37378 25.1671 4.37378 25.1671L10.1387 23.555L10.139 23.5548Z" fill="#CFB66C"/>
<path fill-rule="evenodd" clip-rule="evenodd" d="M10.1388 23.5547C9.66041 23.6954 9.18471 23.8322 8.69946 23.961L7.26015 24.3468C6.78179 24.4875 6.30609 24.6243 5.82906 24.765L5.11351 24.9619C4.87632 25.0303 4.63516 25.0905 4.39001 25.1591C4.62694 25.0796 4.86837 24.9982 5.10556 24.9299L5.82111 24.7009C6.29946 24.5519 6.77517 24.4112 7.2522 24.2625C7.73851 24.142 8.21713 24.0132 8.70343 23.8966C9.16562 23.78 9.6522 23.6636 10.1388 23.555V23.5547ZM4.67545 26.4938C4.91238 26.4053 7.6463 25.1311 8.28154 24.8334C8.59956 24.6845 9.52394 24.3564 9.52394 24.3564L4.67545 26.4938Z" fill="#CFB66C"/>
<path fill-rule="evenodd" clip-rule="evenodd" d="M4.67544 26.4937C4.88427 26.4142 5.08144 26.317 5.28233 26.2245L5.87729 25.947L7.07146 25.3722C7.46898 25.1832 7.85538 24.9746 8.26536 24.7971C8.47446 24.7088 8.68356 24.6365 8.89239 24.5681L9.21041 24.4677C9.3188 24.4396 9.41951 24.4072 9.52843 24.3792C9.1309 24.5681 8.71244 24.729 8.31439 24.9137C7.91686 25.1109 7.51032 25.2717 7.10008 25.4485L5.88603 25.983C5.47844 26.1481 5.08091 26.3249 4.67517 26.4937H4.67544ZM4.94048 27.6068C4.94048 27.6068 7.4168 26.1556 8.26909 25.6892C8.71538 25.4401 10.1587 24.7242 10.1587 24.7242L4.94048 27.6068Z" fill="#CFB66C"/>
<path fill-rule="evenodd" clip-rule="evenodd" d="M4.94067 27.6073C5.35861 27.35 5.78475 27.0887 6.2109 26.8234L6.84694 26.4373C7.06399 26.3088 7.27309 26.1882 7.49438 26.0596C7.71143 25.9308 7.92053 25.8023 8.14155 25.6817C8.24677 25.6168 8.35702 25.5603 8.47123 25.5129L8.80886 25.3441C9.25515 25.127 9.70144 24.9058 10.1718 24.7168C9.7457 24.9863 9.30736 25.2156 8.86929 25.4525C8.65224 25.5731 8.43095 25.6817 8.2139 25.8023C7.99685 25.9229 7.78775 26.0517 7.56646 26.1683C7.34941 26.2968 7.14032 26.4174 6.91929 26.534L6.2639 26.8918L4.9412 27.6073H4.94067ZM10.1388 25.0422C10.1388 25.0422 8.59902 26.2242 8.10052 26.6021C7.60202 26.9801 6.13462 28.0414 6.13462 28.0414L10.1388 25.0422Z" fill="#CFB66C"/>
<path fill-rule="evenodd" clip-rule="evenodd" d="M18.9755 34.5744L18.1876 33.0829L18.6458 31.2174L21.9143 29.9551L20.5232 27.1009L21.2107 24.2183L22.5013 21.637L26.4896 21.01L29.4201 18.2159L35.7482 18.6943L36.9903 25.4605L34.5983 33.9794L33.2356 38.3898L27.7115 38.5989L25.1467 36.822L22.1435 35.5674L18.9755 34.5744Z" fill="#E2CC85"/>
<path fill-rule="evenodd" clip-rule="evenodd" d="M28.6645 34.5262C28.6645 34.5262 27.9004 34.876 26.5973 34.7955C26.2202 34.289 23.579 34.0518 23.579 34.0518C23.579 34.0518 23.2494 33.9514 22.6663 34.1925C22.0796 34.4311 21.5246 34.4016 21.006 34.5302C20.4874 34.6587 19.9724 33.9834 19.5749 33.8427C19.1774 33.694 18.6503 33.3363 18.6503 33.3363L17.5372 33.2276L15.302 32.2828L11.7511 28.7451L10.7861 30.2557L10.4885 32.1251L11.5621 34.3404L14.4527 36.9736L20.089 38.4047L23.4298 37.4205L27.615 35.6515L28.6645 34.5259V34.5262Z" fill="#F1D789"/>
<path fill-rule="evenodd" clip-rule="evenodd" d="M8.63926 22.0232L9.35481 19.8564L10.2074 18.4571L12.9529 18.2279L12.1287 20.6321L9.83343 24.7169L10.7862 28.3632L9.09774 29.2073L8.57884 28.4115L8.1609 26.5863L8.13281 24.5358L8.63926 22.0232Z" fill="#F4ECB4"/>
<path fill-rule="evenodd" clip-rule="evenodd" d="M11.7188 34.3775L11.1923 33.6418C11.1923 33.6418 11.0515 33.292 11.1321 32.9864C11.2116 32.6769 11.2002 32.6567 11.1602 32.5401C11.1202 32.4235 10.7823 32.0215 10.8024 31.6756C10.8223 31.3258 10.7743 31.2092 11.0314 30.932C11.3006 30.6627 11.2203 30.1963 11.2203 30.1963L11.5702 30.4134L11.6497 30.2928C11.6497 30.2928 11.7782 30.3932 11.7782 30.5501C11.8063 30.3331 11.6897 29.3278 11.955 29.0989C12.2203 28.8699 12.6907 30.1722 12.6907 30.1722L12.4013 28.2826L11.6574 26.3451L10.3347 24.5761L10.2552 22.6261V22.4573C10.2552 22.4573 9.648 23.3901 9.47918 24.1269C9.3586 24.6333 9.648 25.2484 9.58784 25.9762C9.53934 26.6999 9.47918 26.6435 9.65595 26.9302C9.83271 27.217 10.2631 27.8066 10.0943 28.2328C9.94561 28.5988 9.4389 28.3415 9.4389 28.3415C9.4389 28.3415 9.33846 28.6388 9.20171 28.7475C9.15347 28.5707 9.10127 28.4581 9.0048 28.3499C8.99658 28.4183 8.97671 28.5108 8.97671 28.5108C8.97671 28.5108 8.88819 28.2333 8.79968 27.8835C8.67936 27.4173 8.55056 26.8022 8.43395 26.4726C8.38572 26.6615 8.26514 27.2363 8.26514 27.2363L8.33351 28.121L8.66319 29.335L8.98121 30.1301L9.29075 31.1029L9.55975 31.7565L9.77679 32.255L9.96575 33.3768L10.8782 34.3414L11.3648 34.5588L11.7183 34.3777L11.7188 34.3775Z" fill="#F3E19D"/>
<path fill-rule="evenodd" clip-rule="evenodd" d="M9.11763 20.2543C9.11763 20.2543 8.46225 21.3673 8.27356 22.4894C8.08486 23.6115 7.91578 24.7972 8.03504 26.3247C8.15562 27.8648 8.38486 28.8093 8.56984 29.4848C8.88786 30.6066 9.71154 32.1665 9.71154 32.1665L9.73963 32.1061C9.60118 31.8437 9.49068 31.5674 9.40995 31.2819C9.30129 30.8557 9.26101 30.3493 9.16057 30.12C9.07205 29.8911 8.92338 29.6939 8.85103 29.4125C8.78265 29.1432 8.77152 28.717 8.56163 28.3996C8.47311 28.2708 8.36446 27.9331 8.33239 27.5955C8.29211 27.0888 8.35253 26.5219 8.3043 26.0557C8.21578 25.2798 8.15562 24.7532 8.23592 24.3469C8.31622 23.9406 8.73469 22.7873 8.99202 21.8706C9.16083 21.2836 9.06013 20.7891 9.36967 20.2784C9.67921 19.7719 9.86843 19.3256 9.93654 19.0161C10.016 18.7346 9.11657 20.2543 9.11657 20.2543H9.11763Z" fill="#F2E8B0"/>
<path fill-rule="evenodd" clip-rule="evenodd" d="M12.2256 19.8079C12.2256 19.8079 11.8879 19.9086 11.7271 20.0853C11.5662 20.2542 11.4978 20.3949 11.2808 20.6803C11.0637 20.9657 11.0516 21.1989 10.8745 21.5567C10.6978 21.9065 10.3076 22.4331 10.2594 22.6221C10.2112 22.811 10.1309 23.6954 10.0304 24.1136C9.94192 24.5318 10.1309 25.0465 10.1309 25.0465L10.3599 24.998C10.3599 24.998 10.3599 25.2956 10.5891 25.4967C10.8181 25.6936 10.8584 24.8291 10.8584 24.8291L11.7146 21.9386L13.005 21.0622L13.1457 20.3546L12.225 19.8079H12.2256Z" fill="#F5EEC0"/>
<path fill-rule="evenodd" clip-rule="evenodd" d="M12.8526 21.1187C12.8526 21.1187 12.2454 21.1587 11.9481 21.376C11.8275 21.4643 11.7793 21.5366 11.6507 21.6453C11.4135 21.8422 11.1721 22.0232 11.0558 22.2813C10.927 22.5384 10.7862 22.9285 10.6898 23.6642C10.6495 23.9737 10.6495 24.2592 10.6214 24.5086C10.5811 24.8462 10.5209 25.1154 10.553 25.3036C10.5933 25.6895 10.9914 25.8906 11.03 26.3287L11.8543 25.9108L12.6302 22.8511L14.2786 21.8176L13.3458 20.7723L12.8515 21.1169L12.8526 21.1187Z" fill="#E6DB9D"/>
<path fill-rule="evenodd" clip-rule="evenodd" d="M8.50442 41.7214C8.50786 41.6912 8.51131 41.661 8.51475 41.63C8.63507 40.5964 8.65548 39.813 8.74373 39.3225C8.87226 38.6271 8.96078 38.3684 8.94063 38.1081C8.91254 37.6902 8.88047 37.3847 8.92076 37.0629C8.98092 36.6368 9.39911 36.1303 9.38719 35.7805C9.37897 35.503 9.23825 35.3223 9.11767 35.1535C8.99708 34.9847 8.90062 34.8439 8.90062 34.8439C8.90062 34.8439 9.72482 34.2771 9.71687 31.9934C9.7337 31.9982 9.7499 32.0049 9.7651 32.0135L10.1711 33.1672L10.4486 33.5048L11.514 35.4908L12.8849 36.8218L14.9109 38.1845L16.1814 39.5671L16.31 43.2537L14.6496 45.4086L14.3777 45.901C12.2175 44.8165 10.2366 43.4068 8.50415 41.7211L8.50442 41.7214Z" fill="#E5CB7A"/>
<path fill-rule="evenodd" clip-rule="evenodd" d="M13.5763 45.2483C13.5763 45.2483 13.6044 44.7901 13.9823 44.4924C14.0427 44.5929 14.0827 44.6896 14.0708 44.7617C14.1392 44.6414 14.6175 43.8694 15.6991 43.6682C16.7806 43.4713 17.0419 42.6834 17.0419 42.6834L19.3372 40.597L21.9625 38.1808L25.1546 37.059L26.6464 36.693C26.6464 36.693 26.6745 36.8017 26.6183 37.0428C26.8955 37.0229 27.5106 36.8822 28.1499 36.657C28.4072 36.5565 28.6486 36.5162 28.7772 36.649C28.9661 36.8258 28.9942 37.244 29.0061 37.4931C29.3157 37.4247 29.6734 37.1274 29.9602 37.1554C30.4187 37.2037 30.8247 37.7425 31.2911 37.7425C31.9062 37.7425 32.1834 37.3645 32.6138 37.0669C32.8711 36.8902 33.2408 36.6694 33.4499 36.5202C33.9484 36.1542 39.2231 34.5421 39.2231 34.5421L41.0724 34.6627L41.37 36.6487L41.211 41.8404C41.1913 41.8592 41.1717 41.8789 41.1519 41.8977L32.7434 46.2893L21.0879 48.076C18.4771 47.6494 15.9575 46.7828 13.6367 45.513L13.5771 45.248L13.5763 45.2483Z" fill="#D8C173"/>
<path fill-rule="evenodd" clip-rule="evenodd" d="M9.21118 42.3819C9.37682 42.0355 9.52576 41.7458 9.55199 41.6422C9.57267 41.851 9.61056 42.3093 9.68689 42.7964C9.52664 42.6601 9.36807 42.5219 9.21118 42.3816V42.3819Z" fill="#F1D789"/>
<path fill-rule="evenodd" clip-rule="evenodd" d="M17.7254 47.2677L19.2328 46.8484L19.3613 46.8887C19.3613 46.8887 19.4297 46.929 19.4297 47.0654C19.6186 46.9571 19.7795 46.9769 19.8961 46.9048C19.9563 47.0334 20.0164 47.4595 20.282 47.5117C20.5592 47.5722 20.8568 47.3911 21.1584 47.1622C21.4557 46.925 21.7944 46.6274 22.0507 46.5068C22.1447 46.6797 22.228 46.8582 22.3001 47.0413C22.6377 46.7721 23.2247 45.6786 24.0609 45.6985C24.3025 45.1274 24.7063 44.6396 25.2222 44.2955C25.9981 43.7689 26.4844 43.7286 27.0916 43.7768C27.3328 43.4636 27.6299 43.1978 27.968 42.9929C28.0685 43.0332 28.3459 43.202 28.6918 43.0412C29.0416 42.8806 29.4354 42.2572 29.9541 42.1769C30.2335 42.1385 30.5177 42.1981 30.7581 42.3458C30.7581 42.3458 32.2687 40.846 33.311 40.3475C33.2707 40.2269 33.1904 39.7727 34.4124 38.7675C34.4808 38.8279 34.4326 38.9967 34.4808 39.006C34.5007 39.006 34.7988 38.8775 35.1762 38.5878C35.6426 38.2383 36.2013 37.8723 36.5389 37.7718C37.175 37.5829 37.8497 37.9687 37.8497 37.9687C37.9071 37.9285 37.971 37.8985 38.0387 37.8802C38.1993 37.8521 38.3159 37.832 38.4044 37.8007C38.3964 38.0098 38.513 38.3676 38.4044 38.6771C38.5303 38.7479 38.6636 38.8045 38.8019 38.8459C38.7338 38.9946 38.5849 39.3725 38.3358 39.5535C38.5446 39.654 38.5727 39.7706 38.8703 39.8716C38.7497 40.0404 38.5523 40.33 38.4643 40.5076C38.3758 40.6966 38.058 41.4805 37.9173 41.7778C37.7686 42.0754 37.5677 42.6222 37.471 42.7319C37.3743 42.8416 37.0247 43.3067 36.7555 43.5357C36.994 43.4472 37.9698 43.1498 38.3837 43.0372C38.2605 43.2179 37.6358 44.1447 37.0353 45.0359C31.2186 48.5223 24.1829 49.3368 17.7235 47.2716L17.7254 47.2677Z" fill="#E0CD81"/>
<path fill-rule="evenodd" clip-rule="evenodd" d="M12.9519 21.01C12.9519 21.01 12.6024 21.01 12.534 21.0582C12.4656 21.1065 12.8838 21.2072 13.0123 21.2554C13.1409 21.3036 13.4184 21.5247 13.4907 21.7017C13.5591 21.8705 16.0033 22.8553 16.0033 22.8553L17.732 22.7668L18.3281 21.9434L17.1943 20.9504L17.9894 18.6066L16.9362 18.7754L14.4034 20.286L13.1329 20.7726L12.9519 21.01Z" fill="#DFC57C"/>
<path fill-rule="evenodd" clip-rule="evenodd" d="M16.7483 21.786C16.7992 21.8684 16.8901 21.9174 16.9869 21.9146C17.3446 21.9146 17.674 22.0031 17.8108 22.1838C18.04 22.4735 18.6753 23.3981 18.6753 23.3981L20.1949 23.9448L20.2929 22.1555L18.6326 21.0018L16.743 21.6972V21.7858H16.7473L16.7483 21.786Z" fill="#E5CC7C"/>
<path fill-rule="evenodd" clip-rule="evenodd" d="M16.4502 22.4493C16.4502 22.4493 16.7274 22.4694 17.0773 22.3406C17.4271 22.2118 18.0019 21.9346 18.2513 22.0433C18.6009 22.1919 18.5285 22.6584 18.9067 23.0768C19.1357 23.3342 19.5539 23.3262 19.791 23.6037C20.0282 23.8812 20.8442 23.7524 20.8442 23.7524L21.1538 25.422L19.9116 27.0142L19.5054 28.992H17.8257L16.2912 28.3833L15.5354 26.5547L15.9133 24.7054L16.4502 22.4493Z" fill="#D2C281"/>
<path fill-rule="evenodd" clip-rule="evenodd" d="M19.6993 22.5297C19.7409 22.5425 19.7842 22.5493 19.8278 22.5498C19.7796 22.5901 19.6789 22.6784 19.7191 22.9076C19.7594 23.1369 19.888 23.4263 19.7796 23.603C19.8661 23.6976 19.9306 23.8102 19.9685 23.9327C20.0369 24.1299 20.057 24.3106 20.5031 24.339C20.4387 24.3786 20.3793 24.4259 20.3263 24.4797C20.3263 24.4797 20.6358 24.749 20.7927 24.9981C20.9533 24.9912 21.3795 24.8587 21.3795 24.8587L21.468 24.9191L21.6569 24.8396C21.6569 24.8396 21.4802 24.7712 21.6087 24.3411C21.7293 23.9632 21.838 23.9833 21.8472 23.9552C21.8565 23.9271 21.9357 23.5291 21.9357 23.3682C21.9959 23.1594 22.0441 22.5241 22.0441 22.5241L21.9156 21.1211L21.1921 20.6828L20.6038 20.1149L20.0488 21.1601L19.6834 21.5245L19.6553 22.429L19.6993 22.5297Z" fill="#E2C270"/>
<path fill-rule="evenodd" clip-rule="evenodd" d="M21.4399 21.3558C21.4399 21.3558 21.5685 21.7215 21.617 22.003C21.6341 21.9483 21.6435 21.8915 21.6451 21.8342C21.6451 21.8342 21.7455 22.3891 21.7654 22.6184C21.8057 22.6101 21.8449 22.5982 21.8539 22.6382C21.8629 22.6783 21.9546 23.1248 21.9334 23.3739C22.1008 23.0977 22.3325 22.8661 22.6087 22.6987C22.7695 22.598 22.9585 22.4896 23.1557 22.4813C23.4652 22.4734 23.6902 22.6785 24.0602 22.6785C24.9525 22.6785 25.7608 22.0231 26.3557 21.8222C26.7938 21.6733 27.1717 21.5649 27.437 21.3235C27.5658 21.2151 27.7951 20.9739 28.0039 20.6159C28.2814 20.1389 28.5708 19.7236 28.8604 19.6714C28.7294 19.6954 28.596 19.7049 28.4629 19.6995C28.4629 19.6995 28.5514 19.6109 28.7014 19.4904C28.8514 19.3698 29.0311 19.2211 29.2882 19.2211C29.7466 19.2211 29.9756 19.2892 30.2329 19.2892C30.4903 19.2813 30.639 19.2211 30.639 19.2211C30.639 19.2211 30.9085 19.4101 31.5154 19.4101C32.1225 19.418 32.5285 19.4702 32.8463 19.4986C33.164 19.5269 34.2291 19.4101 34.5347 19.4191C34.7339 19.4267 34.9295 19.4746 35.1098 19.5598L34.1247 16.6976L30.5862 13.6049L28.4796 15.0964L25.239 18.3367L22.1033 19.4986L21.4479 20.2343V21.3558H21.4399Z" fill="#CCB360"/>
<path fill-rule="evenodd" clip-rule="evenodd" d="M28.4756 19.7155C28.4756 19.7155 28.5641 19.6272 28.7125 19.5066C28.8609 19.386 29.0425 19.2371 29.2995 19.2371C29.7577 19.2371 29.987 19.3055 30.2443 19.3055C30.5016 19.2975 30.6503 19.2371 30.6503 19.2371C30.6503 19.2371 30.9201 19.4258 31.5267 19.4258C32.1339 19.4337 32.5399 19.486 32.8576 19.514C33.1754 19.5421 34.2405 19.4258 34.5461 19.4345C34.7452 19.442 34.9408 19.4899 35.1209 19.5753L34.6746 18.2846L34.1562 17.2998L32.6766 15.6795C32.6766 15.6795 30.901 14.6343 30.8875 14.6263C30.8796 14.6184 30.2724 14.4575 30.2724 14.4575L28.6643 15.4304L27.2051 19.2056L27.177 20.0006L28.1215 20.4469C28.3587 20.0494 28.6203 19.7314 28.8654 19.6911C28.6441 19.7152 28.4753 19.7152 28.4753 19.7152L28.4756 19.7155Z" fill="#D5B457"/>
<path fill-rule="evenodd" clip-rule="evenodd" d="M28.4554 19.9849C28.3146 19.9929 28.1983 19.9648 28.166 19.8644C28.0454 19.5267 27.9489 19.4785 27.8479 19.4785C27.747 19.4785 27.6107 19.6955 27.5299 19.7154C27.4491 19.7353 27.3532 19.4663 27.3532 19.4663L27.2646 19.426C27.2646 19.426 26.746 19.7637 26.3803 20.1617C26.0145 20.5598 25.4153 21.2353 25.1461 21.3556C24.8768 21.4759 23.9519 21.5165 23.6355 21.5849C23.3191 21.6532 22.9682 21.8825 22.9199 21.9347C22.8717 21.9869 23.0609 22.0431 23.089 22.0953C23.1171 22.1435 22.7792 22.1234 22.7511 22.1748C22.7313 22.2151 22.8306 22.444 22.8799 22.5606C22.9662 22.5178 23.0608 22.4944 23.1571 22.4923C23.4667 22.4843 23.6919 22.6894 24.0616 22.6894C24.9542 22.6894 25.7623 22.0341 26.3572 21.8329C26.7956 21.6842 27.1735 21.5756 27.4388 21.3344C27.5673 21.226 27.7965 20.9846 28.0056 20.6268C28.1583 20.3817 28.3072 20.1524 28.4562 19.9836L28.4554 19.9849Z" fill="#D2B257"/>
<path fill-rule="evenodd" clip-rule="evenodd" d="M15.6551 39.8814C15.6551 39.8814 15.5756 39.5838 14.8388 38.816C14.6297 38.599 14.5012 38.4185 14.3605 38.2894C14.0107 37.9595 13.8055 37.8712 13.5564 37.6823C13.0097 37.2763 12.4147 37.2763 11.9565 36.7778C11.4983 36.2793 10.9643 35.3268 10.5933 34.3534C10.2275 33.3805 10.1268 33.071 10.1268 33.0429C10.1268 33.0148 10.2275 32.8258 10.3561 32.8539C10.4846 32.882 10.4846 33.1311 10.5169 33.1915C10.581 33.2902 10.6536 33.3829 10.734 33.4688C10.9229 33.6861 11.1922 33.9458 11.3289 34.3332C11.3009 34.0036 11.1882 33.6378 11.1882 33.6378C11.1882 33.6378 11.8958 34.0841 12.4987 34.5503C13.1059 35.0167 13.355 35.1776 13.5323 35.4749C13.7096 35.7723 14.1273 36.5565 14.3274 36.7857C14.5274 37.0149 17.269 37.8792 17.269 37.8792L18.5732 38.8515L19.2206 40.2707L18.7139 41.0657L17.741 41.2748L16.161 40.5672L15.6551 39.8811V39.8814Z" fill="#D2B159"/>
<path fill-rule="evenodd" clip-rule="evenodd" d="M12.1449 34.9926C12.1449 34.9926 12.4746 35.5192 13.2786 36.0177C14.0024 36.4561 15.1481 36.8541 16.1694 37.0913C16.7562 37.232 17.3432 37.3404 17.8698 37.3486C19.289 37.3685 20.2658 36.9628 21.4762 36.83C22.1315 36.7616 22.9356 36.7094 23.7717 36.512C24.8451 36.2546 25.4803 35.965 26.3448 35.5579C26.9718 35.2685 27.5469 35.0515 28.0131 34.774C28.6685 34.3881 29.1468 33.958 29.7018 33.8295C29.6334 34.0184 29.561 34.3561 29.0143 34.7059C29.3037 34.6977 29.7018 34.6778 29.7018 34.6778C29.7018 34.6778 29.3159 34.9068 28.6364 35.4214C28.2182 35.7394 27.6635 36.2777 27.0966 36.6355C26.7306 36.8647 26.3326 37.033 26.0713 37.1703C25.4352 37.5201 25.1787 37.6969 24.7608 38.1243C24.9095 38.1164 24.9216 38.1243 24.9216 38.1243C24.9216 38.1243 24.3948 38.1927 24.0171 38.3936C23.9376 38.3936 23.7998 38.3655 23.5587 38.4339C23.3697 38.494 23.1203 38.631 22.8633 38.7031C22.4973 38.8118 22.3769 38.7636 22.3769 38.7636L22.4371 38.8841C22.4371 38.8841 21.9601 38.8759 21.8011 38.8921C21.8292 38.9 21.8212 38.9122 21.8212 38.9122C21.7933 38.9169 21.7664 38.9264 21.7417 38.9403C21.6652 38.9899 21.581 39.0265 21.4926 39.0487C21.4444 39.0567 21.4041 39.0567 21.3436 39.0689C21.3638 39.1171 21.5207 39.3869 21.593 39.5459C21.5329 39.5862 20.6281 40.2697 20.6281 40.2697C20.6562 40.3138 20.6791 40.361 20.6965 40.4104C20.7246 40.4986 20.7368 40.6274 20.7648 40.6876C20.833 40.8082 20.8732 40.8283 20.8732 40.8283C20.8732 40.8283 20.7648 40.8484 20.5756 40.8967C20.415 40.937 20.2179 41.0051 19.9396 41.0454C19.8542 41.0565 19.7683 41.0632 19.6823 41.0655C19.7225 41.154 19.8993 41.4916 19.5736 41.8815C19.2479 42.2713 19.1474 42.328 19.047 42.5772C18.9964 42.5389 18.9426 42.5052 18.8861 42.4764C18.7777 42.4282 18.6288 42.3561 18.5766 42.2594C18.5462 42.3883 18.5059 42.5146 18.456 42.6373C18.3556 42.9066 18.2069 43.1721 18.1788 43.373C18.0702 43.2524 17.8693 43.0152 17.5918 43.0635C17.3143 43.1117 17.0933 43.4896 17.0451 43.5983C17.0451 43.5299 16.9968 43.4777 16.9849 43.558C16.9767 43.6465 16.824 44.5709 15.9717 45.3188C15.9638 45.1298 15.9638 44.7116 15.9437 44.5751C15.8641 44.6546 15.7669 44.772 15.1878 45.0214C14.621 45.2705 14.7108 45.5199 14.7108 45.5199C14.7108 45.5199 14.6626 45.1224 14.9681 44.7037C15.2777 44.2857 15.4666 44.0885 15.4666 44.0565C15.4616 44.0238 15.4477 43.9932 15.4263 43.968C15.3861 43.9277 15.3058 43.8794 15.3058 43.8474C15.354 43.8275 15.8323 43.5983 15.8043 43.1236C15.7762 42.6977 15.5954 42.4764 15.4666 42.3198C15.4467 42.2997 15.6558 42.151 15.6275 42.1028C15.6073 42.0747 15.3503 41.8855 15.3179 41.7848C15.3255 41.7247 15.339 41.6654 15.3582 41.608C15.3863 41.5195 15.4065 41.459 15.3985 41.3989C15.3784 41.2984 15.2697 41.021 15.2376 40.9929C15.2657 41.0008 15.4666 40.9929 15.4666 40.9929C15.4666 40.9929 15.306 40.7356 15.2777 40.615C15.2493 40.4944 15.1891 40.1766 15.1571 40.1165C15.2255 40.1244 15.3943 40.1363 15.3943 40.1165C15.4025 40.056 15.2456 39.9556 15.3148 39.878C15.363 39.8859 15.4555 39.9262 15.5437 40.0388C15.4955 39.91 15.4152 39.6609 15.2461 39.5605C15.3256 39.5324 15.596 39.4598 15.8331 39.6005C16.0703 39.7412 16.1512 39.9381 16.1512 39.9381C16.1512 39.9381 16.2919 40.0468 16.5092 40.2076C16.7583 40.4045 17.0758 40.6847 17.5825 40.8829C17.6912 40.9433 17.9684 40.9433 18.1695 40.903C18.2571 40.8822 18.3411 40.8483 18.4186 40.8026C18.4467 40.7861 18.4763 40.7726 18.5072 40.7623C18.4639 40.6756 18.4142 40.5922 18.3585 40.5129C18.4269 40.5129 18.5072 40.5212 18.5072 40.5212C18.5072 40.5212 18.5554 40.4125 18.3383 40.2031C18.3866 40.1549 18.447 40.1236 18.447 40.0423C18.3786 40.0343 18.258 39.9339 18.23 39.8936C18.27 39.8655 18.3304 39.773 18.3988 39.7449C18.3383 39.6967 18.1897 39.4955 18.1213 39.4757C18.1866 39.4514 18.2498 39.4218 18.3103 39.3871C18.3103 39.3871 17.9726 39.2986 17.864 39.2263C17.7553 39.1468 17.5947 39.0092 17.4982 38.9689C17.3975 38.9287 17.2208 38.9088 17.1484 38.8282C17.2165 38.8484 17.3252 38.8282 17.4058 38.8282C17.4659 38.8282 17.4943 38.8362 17.5141 38.8362C17.5062 38.8081 17.5062 38.7477 17.6631 38.7278C17.7385 38.7164 17.8118 38.6933 17.8801 38.6594C17.8801 38.6594 17.7312 38.6515 17.5621 38.4906C17.393 38.3297 17.2526 38.2012 17.1561 38.181C17.0557 38.1609 16.8667 38.2494 16.7501 38.2412C16.5892 38.2213 16.5209 38.1408 16.5209 38.1408C16.5209 38.1408 15.9863 38.189 14.8004 37.4655C13.775 36.8382 13.3287 36.2835 13.3287 36.2835C13.2328 36.2487 13.14 36.2056 13.0515 36.1547C12.6657 35.9538 12.1309 35.5356 12.147 34.9887L12.1449 34.9926Z" fill="#C2A44D"/>
<path fill-rule="evenodd" clip-rule="evenodd" d="M26.9356 10.8628C27.0286 10.893 27.1112 10.9487 27.1741 11.0236C27.363 11.2407 27.4836 11.6507 27.0535 12.089C27.2223 12.1492 27.292 12.1685 27.4394 12.1492C27.2907 12.3262 26.9531 12.7041 26.9329 13.0338C26.9128 13.3031 27.0816 13.3836 27.0816 13.3836C27.0816 13.3836 26.8243 13.681 26.8123 14.1787C26.9339 14.0416 27.0669 13.9152 27.2099 13.8008C27.5075 13.5636 27.9175 13.2943 28.1949 13.1255C28.1912 13.1962 28.2007 13.2671 28.223 13.3343C28.223 13.3343 28.7414 12.9082 29.1771 13.0974C29.374 13.1859 29.2855 13.4631 29.2855 13.4631C29.2855 13.4631 29.555 13.3627 29.744 13.5516C29.9329 13.7406 30.2001 14.228 30.3371 14.4169C30.3972 14.5054 30.5541 14.6743 30.7147 14.9356C30.9341 15.3014 31.1173 15.6878 31.2617 16.0892C31.2697 15.8801 31.3219 15.5546 31.9171 15.7595C32.5121 15.9686 33.1873 16.4069 33.7542 17.2701C34.3211 18.1333 34.4615 19.1077 34.747 19.4787C35.0364 19.8365 35.334 20.4315 35.3541 20.6809C35.3743 20.9302 35.2656 21.734 35.8606 23.909C36.0294 23.2338 36.2867 21.734 36.2867 21.734L36.4274 20.4113L36.5883 16.3187L32.3146 12.7682L28.9738 10.3439L26.7988 10.553L26.9353 10.8625L26.9356 10.8628Z" fill="#CAA13E"/>
<path fill-rule="evenodd" clip-rule="evenodd" d="M34.8757 16.9534C34.8757 16.9534 34.8153 16.5559 33.8103 15.8801C32.8051 15.2128 32.0212 15.2128 31.2977 14.6459C30.7428 14.1996 30.164 13.1743 29.7871 12.8366C29.4211 12.503 29.361 11.538 29.361 11.538L30.5951 10.5045L32.4307 7.85139L33.9823 6.14282L34.726 7.17639L35.7595 8.39043L36.3344 10.8267L36.5435 14.3928L34.8738 16.9537L34.8757 16.9534Z" fill="#B59544"/>
<path fill-rule="evenodd" clip-rule="evenodd" d="M36.1181 21.2278C36.1485 20.687 36.0817 20.1452 35.9209 19.6279C35.6559 18.8037 35.0768 17.3403 34.8078 16.7922C34.6992 16.1851 34.7798 16.1369 34.8964 16.0685C35.013 16.0001 35.4513 15.7505 35.6914 14.8746C35.9315 13.9987 36.6765 13.9701 36.6765 13.9701L37.1347 13.6324L37.8304 15.3731L38.4373 16.9452L38.6262 18.1473L38.7669 19.1724L38.4373 21.3394L36.8093 22.8108L36.1178 21.2278H36.1181Z" fill="#C89D3A"/>
<path fill-rule="evenodd" clip-rule="evenodd" d="M13.3995 45.3812V45.3367C13.4334 45.3155 13.4632 45.2886 13.4878 45.2572C13.5159 45.2169 13.5363 45.1687 13.5562 45.1567C13.5964 45.1366 13.7854 45.0772 13.8858 45.0963C13.9863 45.1154 14.2518 45.2248 14.3926 45.2169C14.682 45.2089 15.0196 44.9876 15.5544 45.0884C16.3585 45.237 16.5474 45.7838 17.0138 46.0933C17.3319 46.3106 17.661 46.2139 17.7092 46.2139H17.8176C17.8378 46.2139 17.9865 46.0451 18.067 46.0533C18.2279 46.0612 18.2438 46.194 18.3442 46.202C18.5814 46.23 19.0399 46.0814 19.2691 46.1418C19.4071 46.185 19.5152 46.293 19.5585 46.4309C19.6068 46.5796 19.5665 46.7686 19.4499 46.8772C19.2008 47.1062 18.9636 47.3235 18.9153 47.5133C18.9767 47.56 19.0356 47.6099 19.0918 47.6627C17.1027 47.1559 15.1888 46.3896 13.3995 45.3836V45.3812Z" fill="#CEB052"/>
<path fill-rule="evenodd" clip-rule="evenodd" d="M34.8074 37.3486C34.8074 37.3486 35.4344 36.5125 35.6517 36.0982C35.8688 35.6713 34.9643 30.2649 34.9643 30.2649L36.7815 24.3111L36.733 22.3733C36.733 22.3733 36.8215 20.5841 37.0306 19.8082C37.28 20.2544 38.056 20.7932 38.2248 21.0787C38.3043 20.5317 38.5743 19.378 38.5343 18.1478C38.683 18.3768 39.0408 20.6806 39.0408 20.6806L39.3985 22.2323L39.865 23.8807L40.3836 25.6216L40.6931 26.8237L40.8699 27.1131L41.0188 27.6195L41.1596 28.1665L41.5656 29.449L41.8041 30.5021L41.993 32.4118C42.0342 32.5581 42.0637 32.7073 42.0816 32.8581C42.0895 33.0672 42.0535 33.1878 42.0535 33.2241C42.0535 33.2604 42.1218 33.6823 42.0938 34.0001C42.0535 34.3181 42.0535 34.567 41.8041 34.7951C41.5547 35.0233 41.3981 36.3871 41.3981 36.3871L40.9518 36.0898C40.9518 36.0898 41.0403 35.6835 40.8312 35.3138C40.6221 34.9441 40.2161 34.8675 39.9869 34.9279C39.7579 34.9762 39.2997 35.0482 39.1507 35.177C39.01 35.3056 38.6644 35.7036 38.3467 35.8846C37.9492 36.1231 37.3014 36.142 36.9559 36.2223C36.606 36.3018 36.2202 36.5403 35.8139 36.8172C35.4954 37.0235 35.1591 37.2008 34.809 37.3473L34.8074 37.3486Z" fill="#CCA847"/>
<path fill-rule="evenodd" clip-rule="evenodd" d="M34.8074 46.1328C34.8074 46.1328 34.8339 46.1501 34.885 46.1782C37.7413 44.84 40.3005 42.9431 42.4115 40.5996C42.3885 39.7859 42.3585 38.9519 42.3256 38.6429C42.2575 37.9875 42.3058 37.3202 42.2856 36.9344C42.2655 36.5485 42.0484 34.9764 41.948 34.5704C41.8393 34.1644 41.63 33.9633 41.5982 33.9633C41.5701 33.9715 41.401 34.7273 41.401 34.9173C41.401 35.1073 41.3607 35.5648 41.3607 35.6814C41.3326 35.6731 41.3207 35.6019 41.3207 35.5727C41.2804 35.6731 41.2322 35.8502 41.212 35.8703C41.1919 35.8905 41.2401 35.7015 41.212 35.6612C41.184 35.6209 41.1325 35.6411 41.1437 35.5406C41.1484 35.4811 41.1578 35.422 41.1718 35.3639C41.1718 35.3639 41.0512 35.5406 40.9629 35.9909C40.8744 36.4372 40.8744 36.4494 40.8423 36.4894C40.8143 36.5379 40.6534 36.6985 40.6452 36.7589C40.6372 36.8673 40.7941 36.976 40.806 37.0361C40.814 37.1368 40.6653 37.603 40.6171 37.8312C40.5688 38.0594 40.589 38.5064 40.5376 38.7357C40.4973 38.9448 40.4581 39.0654 40.3205 39.1536C40.421 39.1738 40.5174 39.2019 40.5174 39.2019C40.5174 39.2019 40.6582 39.7968 40.3004 40.3035C40.1719 40.4803 40.1398 40.5609 40.003 40.7217C39.7335 41.0191 39.5244 41.3578 39.5043 41.578C39.4904 41.513 39.481 41.4471 39.4762 41.3808C39.4762 41.3808 39.0582 41.8674 38.8812 42.1449C38.6522 42.5026 38.3345 42.4825 38.2452 42.571C38.1559 42.6595 38.1365 42.8201 38.1657 42.9489C38.0862 42.9688 37.9367 42.9972 37.836 43.3067C37.7878 43.4673 37.6672 43.6247 37.4782 43.7329C37.2893 43.841 37.06 43.8736 36.9434 43.9017C37.0439 43.9298 37.0841 43.9298 37.1324 43.9618C37.0722 44.0623 36.7947 44.2192 36.4852 44.4203C36.1757 44.6093 36.0267 44.8865 35.9504 45.0675C35.8709 45.2363 35.7535 45.3449 35.5645 45.3651C35.644 45.4133 35.7617 45.5257 35.8219 45.562C35.7333 45.5821 35.5833 45.5821 35.3154 45.8114C35.034 46.0446 34.9375 46.113 34.8087 46.1331L34.8074 46.1328Z" fill="#C39D3C"/>
<path fill-rule="evenodd" clip-rule="evenodd" d="M29.2134 47.9959C29.3673 47.888 29.534 47.7996 29.7097 47.7327C30.3368 47.4836 31.0001 47.4354 31.2614 47.3551C31.5108 47.2756 31.7077 47.1659 32.0172 47.1057C32.009 47.1762 32.0021 47.2425 31.9947 47.305C31.0821 47.5919 30.1528 47.8226 29.212 47.9959H29.2134Z" fill="#D2BA6B"/>
<path fill-rule="evenodd" clip-rule="evenodd" d="M40.7787 31.5031C40.7787 31.5031 40.6502 32.1985 40.4209 32.6369C40.1917 33.0752 39.9439 33.6821 39.9439 33.6821C39.9454 33.5453 39.9616 33.4091 39.9921 33.2758C39.7027 33.4446 38.9991 33.8509 38.7996 34.0316C38.6106 34.2005 38.2929 34.4981 38.2126 34.6388C38.4015 34.0841 38.5984 33.5856 38.6308 33.3564C38.3414 33.5655 36.9903 34.6791 36.2869 35.4148L34.0958 37.1877C33.8429 37.3241 33.5825 37.4461 33.3158 37.5529C32.9382 37.7135 32.4919 37.8503 32.1622 37.9791C32.2507 37.7419 32.3912 37.5325 32.5884 37.3316C32.7975 37.1347 33.4245 36.4552 33.521 36.1391C33.6095 35.8094 33.6296 35.6125 33.513 35.335C33.4044 35.3631 33.1552 35.3753 32.9864 35.4235C32.8176 35.4718 32.6366 35.6525 32.6366 35.6525C32.6366 35.6525 32.7651 34.9168 33.0426 34.2214C32.8335 34.2294 32.4757 34.2895 32.4757 34.2895C32.4757 34.2895 32.9742 33.4534 33.8273 32.8706C33.5661 32.9262 33.3104 33.0055 33.0635 33.1075C32.565 33.3166 32.0183 33.6262 31.6123 33.795C31.8413 33.477 33.4494 31.1819 34.4064 29.043C35.3604 26.9083 35.7169 26.3615 35.926 25.2159C36.0344 24.649 36.0055 23.8113 36.0344 23.061C36.0625 22.3171 36.155 21.6498 36.0948 21.2035C36.3439 21.513 37.2768 22.3855 37.3088 24.3355C37.3369 26.2852 36.4165 28.9187 35.4394 30.3376C35.6779 30.4059 36.296 30.4865 36.9309 29.3835C37.5659 28.2805 37.5582 27.9726 37.7875 27.5141C37.8156 27.7433 37.8073 27.8236 37.8073 27.8236C37.8073 27.8236 38.7323 26.7021 39.1703 25.2909C39.2588 25.898 39.5202 26.4328 39.1099 27.5464C38.7442 28.5514 38.2658 28.7968 38.2658 28.7968C38.2658 28.7968 38.503 28.7565 38.8526 28.5474C38.913 28.6961 38.9011 28.8654 39.0015 28.9253C39.102 28.9852 39.2387 29.0862 39.2588 29.1826C39.3672 29.0218 39.5361 28.8166 39.5885 28.664C39.5482 28.982 39.5202 30.3726 39.668 31.0802C39.9778 31.0521 40.2953 31.0319 40.5124 30.473C40.3637 31.02 40.3637 31.3494 40.4641 31.8158C40.629 31.7035 40.7777 31.5023 40.7777 31.5023L40.7787 31.5031Z" fill="#C0993A"/>
<path fill-rule="evenodd" clip-rule="evenodd" d="M30.3328 9.34316C30.3328 9.34316 30.0233 9.47169 29.4967 9.47169C29.0384 9.47169 29.167 9.29492 28.4514 9.29492C27.35 9.29492 23.5025 9.93096 22.827 9.92195C22.3886 9.914 24.3063 10.1109 24.3063 10.1109L29.2073 10.1793L30.1921 10.0998L30.5581 9.35508L30.3328 9.34316Z" fill="#A88F33"/>
<path fill-rule="evenodd" clip-rule="evenodd" d="M17.6247 18.9236C17.6247 18.9236 16.9974 19.402 16.7321 19.768C16.4668 20.1339 16.3261 20.3748 16.0245 20.6725C16.0953 20.6752 16.1661 20.6657 16.2336 20.6444C16.2336 20.6444 16.2336 20.7239 16.1854 20.7448C16.2698 20.7354 16.354 20.7646 16.4144 20.8243C16.3259 20.8725 16.0847 21.114 16.2737 21.3994C16.4144 21.6164 16.712 21.6363 16.712 21.6363C16.712 21.6363 16.6436 21.8335 16.929 21.8134C17.5441 21.7853 18.2316 21.5157 18.5491 21.5841C18.8671 21.6636 19.0479 21.6928 19.2729 22.0829C19.5114 22.4687 19.7191 22.5292 19.7191 22.5292C19.7191 22.5292 19.8599 22.1711 19.8278 21.6366C19.9432 21.3485 20.0071 21.0423 20.0168 20.7321L19.8077 19.1923L18.8952 18.0385L17.7132 18.6938L17.6247 18.9228V18.9236Z" fill="#E3C571"/>
<path fill-rule="evenodd" clip-rule="evenodd" d="M18.7462 18.6943C18.7462 18.6943 18.8347 18.9034 19.2047 18.9233C19.1644 19.0118 19.1644 19.024 19.1766 19.0921C19.1846 19.1605 19.1965 19.2609 19.1965 19.2609C19.2372 19.2412 19.274 19.2143 19.3051 19.1814C19.3253 19.2699 19.285 19.4104 19.3051 19.5111C19.3176 19.5724 19.3378 19.6318 19.3653 19.6879C19.3712 19.6741 19.3779 19.6608 19.3854 19.6479C19.3934 19.6277 19.4649 19.8649 19.6629 20.0454C19.6627 20.0176 19.6696 19.9903 19.6828 19.9659C19.6858 20.0163 19.7025 20.0649 19.731 20.1066C19.7162 20.0995 19.7027 20.09 19.691 20.0785C19.691 20.0785 19.7109 20.7145 19.8195 21.0434C19.8377 21.0222 19.8538 20.9993 19.8678 20.9751C19.8678 20.9552 19.8598 21.1521 19.8397 21.2931C19.8116 21.4338 19.8317 21.6307 19.8317 21.6307C19.9042 21.5736 19.9839 21.5263 20.0687 21.49C20.1892 21.4415 20.3867 21.2928 20.507 20.9631C20.5768 20.7764 20.6306 20.5841 20.6679 20.3883C20.7067 20.4631 20.7336 20.5436 20.7474 20.6268C20.7556 20.7273 20.9445 20.6751 20.9445 20.6751L20.9848 20.2367L21.2233 19.2437L21.4404 18.6286L22.4856 17.0006L24.3741 15.5462L26.0225 15.9241L27.4133 14.0345L25.0173 12.5952L22.7498 12.8324L20.692 15.6827L19.0438 18.2679L18.7462 18.6941L18.7462 18.6943Z" fill="#D8B65B"/>
<path fill-rule="evenodd" clip-rule="evenodd" d="M30.6222 14.5696C30.6222 14.5696 30.4815 14.5977 30.0755 14.8081C29.6695 15.0185 29.388 15.0853 29.2312 15.3948C29.0743 15.7044 29.0623 15.9498 29.0623 15.9498C29.0623 15.9498 29.3398 15.8292 29.5007 15.7889C29.6695 15.7489 29.8585 15.7608 29.8383 15.8292C29.819 15.8761 29.7921 15.9195 29.7588 15.9577C29.7588 15.9577 30.0768 15.9498 30.0683 16.1067C30.0599 16.2636 30.0082 16.4364 29.948 16.5127C29.8876 16.5922 29.6385 16.7099 29.6104 16.8023C29.542 16.9913 29.6385 16.9992 29.6022 17.1519C29.5741 17.3008 29.4416 17.5902 29.0072 18.0967C28.5609 18.6034 28.3712 18.9612 28.3712 18.9612C28.3712 18.9612 28.1541 18.5552 28.0415 18.2053C27.962 18.2454 27.535 18.4826 27.535 18.4826L26.546 15.0373L26.5659 14.8081C26.5659 14.8081 26.6544 14.6997 26.6745 14.4985C26.5259 14.4503 26.5057 14.41 26.3085 14.2213C26.1114 14.0326 25.9508 13.8031 25.6214 13.6463C25.5731 13.5577 25.5127 13.4374 25.2715 13.3889C25.0304 13.3404 24.8857 13.3007 24.8857 13.3007C24.8857 13.3007 25.0142 13.2522 25.0746 13.1517C24.9257 13.1719 24.8054 13.2201 24.4797 13.2122C24.15 13.2039 24.1137 13.192 23.9329 13.2201C23.7522 13.2482 23.5354 13.3288 23.4546 13.0513C23.3661 12.9829 23.1771 13.0433 23.0162 13.2803C22.8554 13.5172 22.7992 13.7064 22.4896 13.7989C22.4679 13.9353 22.4201 14.0663 22.3489 14.1848C22.2604 14.3337 22.1197 14.4824 21.9307 14.7034C21.6331 15.0532 21.6813 15.6281 21.207 16.0664C20.7286 16.5045 21.2865 14.8521 21.2865 14.8521L22.0503 13.0235L24.2252 10.8967L27.6024 10.6677L27.932 12.4168L29.5804 12.9837L30.6217 14.5717L30.6222 14.5696Z" fill="#D3AE4D"/>
<path fill-rule="evenodd" clip-rule="evenodd" d="M31.157 14.9554L29.7378 12.9092L28.7448 12.1452C28.7448 12.1452 28.0372 10.8429 27.989 10.8026C27.9487 10.7745 27.2814 10.7022 26.8553 10.6741L26.9348 10.871C27.0278 10.9012 27.1104 10.9569 27.1733 11.0318C27.3622 11.2489 27.4828 11.6589 27.0527 12.0972C27.2215 12.1574 27.2912 12.1767 27.4386 12.1574C27.2899 12.3344 26.9522 12.7123 26.9321 13.042C26.912 13.3113 27.0808 13.3916 27.0808 13.3916C27.0808 13.3916 26.8234 13.6892 26.8115 14.1866C26.933 14.0496 27.066 13.9231 27.209 13.8087C27.5067 13.5702 27.9166 13.302 28.1941 13.1332C28.1903 13.204 28.1999 13.2749 28.2222 13.3423C28.2222 13.3423 28.7406 12.9161 29.1763 13.1051C29.3732 13.1936 29.2847 13.4711 29.2847 13.4711C29.2847 13.4711 29.5542 13.3706 29.7431 13.5596C29.9321 13.7485 30.2014 14.2348 30.3381 14.4241C30.3983 14.5126 30.5552 14.6814 30.7158 14.9424C30.9352 15.3083 31.1184 15.6948 31.2628 16.0963C31.2707 15.9355 31.303 15.7105 31.5808 15.7105L31.1586 14.9546L31.157 14.9554Z" fill="#CAA13E"/>
<path fill-rule="evenodd" clip-rule="evenodd" d="M9.88168 20.7689C9.88168 20.7689 9.78124 20.5195 9.88168 20.0332C9.98212 19.5469 10.139 19.3176 10.1912 18.6021C10.2434 17.8866 10.7099 16.994 10.7099 16.994L12.0002 16.4072L12.9129 16.6563L13.1822 17.8786L12.0283 18.5146C12.0283 18.5146 11.9682 18.7839 11.6425 19.0009C11.3167 19.218 10.8665 19.3868 10.7581 19.6081C10.6933 19.7436 10.646 19.8868 10.6174 20.0343C10.6174 20.0343 10.2877 19.9659 10.0908 20.1829C9.88168 20.4042 9.88963 20.6011 9.88168 20.7699V20.7689Z" fill="#F4EFC8"/>
<path fill-rule="evenodd" clip-rule="evenodd" d="M12.4868 20.4431C12.4868 20.4431 12.3781 20.5115 12.2978 20.6816C12.2183 20.5531 12.0283 19.7891 12.0204 19.1016C12.0124 18.4141 11.9713 18.2437 12.1304 18.0068C12.2894 17.7699 12.9129 17.5202 12.8244 17.0936C12.7359 16.6876 12.366 16.5187 11.9117 16.6354C11.5937 16.7149 11.357 17.3912 11.0274 17.7288C10.778 17.9861 10.4806 17.9459 10.4003 18.0866C10.2917 18.2755 10.3921 18.4645 10.36 18.5851C10.3518 18.6254 10.2514 18.8424 10.0704 19.1037C9.70465 19.6303 9.08557 20.3742 9.005 21.0415C9.0331 20.6636 9.01322 20.6557 9.11366 20.2375L9.05324 20.137L9.45076 18.8345L9.7081 17.7611L10.2832 15.9638L11.2961 14.1267L12.2811 13.025L13.3062 13.0934L13.4268 14.6331L14.0138 17.524L15.248 19.0436L13.2699 20.3747L12.486 20.4431H12.4868Z" fill="#EBCC73"/>
<path fill-rule="evenodd" clip-rule="evenodd" d="M13.1019 20.9893C13.1019 20.9893 12.9331 21.0296 12.8727 20.9975C12.8122 20.9654 12.7524 20.9291 12.7722 20.8889C12.7921 20.8486 12.9008 20.7805 12.9008 20.7481C12.9054 20.6874 12.8609 20.634 12.8003 20.6275C12.7078 20.6156 12.6797 20.6758 12.6797 20.6758C12.6797 20.6758 12.5912 20.6077 12.5191 20.5963C12.5618 20.5911 12.6047 20.5883 12.6477 20.5881C12.5366 20.5377 12.4187 20.5039 12.2979 20.4876C12.3983 20.4275 12.5955 20.2504 12.724 20.2504C12.8525 20.2504 12.9331 20.2306 12.913 20.1622C12.8928 20.0938 12.7924 19.9934 12.684 19.9531C12.724 19.9048 12.7524 19.8325 12.6559 19.6351C12.5552 19.4382 12.5955 19.3054 12.6278 19.2574C12.6559 19.197 12.7563 19.0886 12.8046 19.0202C12.8528 18.9518 12.8931 18.8594 12.9734 18.8111C13.0137 18.783 13.1422 18.7316 13.271 18.6826C13.4117 18.6344 13.5283 18.5739 13.6086 18.6344C13.6971 18.6945 13.6569 18.7751 13.6569 18.7751C13.6569 18.7751 13.9343 18.6744 14.1834 18.8032C14.4328 18.9235 15.04 19.0001 15.04 19.0001L15.2576 19.4384L13.8183 20.6726L13.2233 20.9702L13.1027 20.9901L13.1019 20.9893Z" fill="#E5C66B"/>
<path fill-rule="evenodd" clip-rule="evenodd" d="M15.0999 18.9718C15.0999 18.9718 14.6536 19.2695 14.5532 19.3778C14.6134 19.3861 14.7138 19.4263 14.6735 19.4865C14.6253 19.5467 14.3359 19.7558 14.175 19.9529C14.0062 20.1498 13.8453 20.3992 13.7892 20.5198C13.729 20.6282 13.2705 20.946 13.1139 20.986C13.4436 20.986 14.1069 20.58 14.356 20.58C14.3481 20.7005 14.4244 20.8373 14.5651 20.8492C14.7058 20.8611 15.1119 20.9377 15.6586 20.6001C16.2053 20.2704 16.0246 20.025 16.2536 19.8644C16.6919 19.5748 16.8687 19.3174 17.1098 19.1568C17.351 18.9962 17.4758 18.9596 17.4758 18.9596C17.4758 18.9596 17.4838 18.8391 17.5553 18.8513C17.5952 18.8558 17.6293 18.8822 17.6438 18.9196C17.6438 18.9196 18.062 18.622 18.5979 18.5417C18.5854 18.5361 18.5754 18.5261 18.5698 18.5136C18.5698 18.5136 18.6098 18.4935 18.618 18.4733C18.618 18.4733 18.6461 18.4331 18.6663 18.4532C18.6864 18.4733 18.7145 18.622 18.7548 18.6824C18.8433 18.6422 19.0121 18.2642 19.0121 18.2642L19.4184 17.1024V16.041L19.1004 16.1014L16.7152 17.1143L15.2677 18.6141L15.0989 18.9718H15.0999Z" fill="#E6BD62"/>
<path fill-rule="evenodd" clip-rule="evenodd" d="M21.9665 13.7655C22.0955 13.7342 22.2192 13.684 22.3336 13.6166C22.2853 13.7454 22.2853 13.8861 22.0762 14.1917C21.8671 14.4973 21.8592 14.5415 21.6904 14.859C21.5216 15.1887 21.5014 15.6631 21.3405 15.8719C21.4126 15.8369 21.49 15.8139 21.5695 15.8038C21.5695 15.8038 21.4089 15.9445 21.3405 16.0932C21.2722 16.2419 21.1516 16.5514 20.8542 16.7406C20.5569 16.9298 20.1787 17.0502 19.7727 17.4965C19.3664 17.9345 18.9485 18.4895 18.7391 18.689C18.8478 18.5001 18.9965 18.1222 19.0368 17.873C19.077 17.6239 19.0285 17.326 19.0969 16.9966C19.1653 16.6672 19.1653 16.4298 19.4944 15.8547C19.8236 15.2796 20.387 13.2816 20.387 13.2816L21.6011 12.8958L21.967 13.7642L21.9665 13.7655Z" fill="#B6933F"/>
<path fill-rule="evenodd" clip-rule="evenodd" d="M21.0901 13.0298C21.0901 13.0298 20.7244 13.5564 20.6239 14.0228C20.5235 14.4893 20.6157 14.449 20.5556 14.6782C20.5196 14.818 20.5196 14.9646 20.5556 15.1044C20.6822 14.9003 20.8556 14.7293 21.0615 14.6056C21.4073 14.3968 21.6888 14.2478 21.8565 14.0711C22.0253 13.8821 22.1661 13.5726 22.5318 13.3354C22.3831 13.3152 22.174 13.2469 22.1343 13.2559C22.2832 13.0871 22.7292 12.8297 23.1795 12.5202C23.6258 12.2022 23.5977 12.0739 24.3214 11.7564C24.0843 11.7967 23.9716 11.7363 23.7744 11.7564C23.854 11.5876 24.1322 11.507 24.4105 11.2298C24.6888 10.9526 24.2337 10.5424 24.2337 10.5424L22.1136 11.8248L21.0885 13.0309L21.0901 13.0298Z" fill="#C49937"/>
<path fill-rule="evenodd" clip-rule="evenodd" d="M15.337 12.0729L15.3853 11.687L15.9924 10.7141L16.6277 9.00556V6.66969L16.5794 5.3189L16.6799 4.43427L16.7562 4.15309L16.8368 4.04443L17.3551 4.31369L18.071 5.28657L18.1393 7.16422L17.4437 10.1271L15.4576 12.2942L15.337 12.0729Z" fill="#DFC068"/>
<path fill-rule="evenodd" clip-rule="evenodd" d="M16.9171 3.93575C16.9171 3.93575 16.5991 3.94396 16.5313 5.26666C16.4634 6.58936 16.4306 7.28477 16.3823 7.94016C16.3341 8.59554 16.2217 8.99333 16.1653 9.37946C16.1088 9.76559 16.0768 10.2919 15.896 10.6136C15.8165 10.7623 15.6466 11.2288 15.2486 11.5786C14.8023 11.9644 14.1355 12.234 14.0345 12.2541C13.8575 12.2941 12.9609 12.3826 12.5952 12.5838C12.4667 12.6522 12.2454 12.7325 12.0003 12.9617C11.5137 13.3998 10.8665 14.1837 10.4001 15.1285C9.68454 16.5397 8.96899 20.5237 8.96899 20.5237L9.12986 20.2544C9.12986 20.2544 9.15 19.8967 9.50777 19.2694C9.8576 18.6423 9.75716 17.9387 10.2435 16.7366C10.4324 16.2784 10.6696 15.6834 10.959 15.1767C11.4175 14.3525 11.9722 13.6449 12.5311 13.2591C13.4435 12.632 14.4488 12.4953 14.4488 12.4953L15.5303 11.7797C15.5303 11.7797 15.7192 11.414 15.9686 10.9958C16.3182 10.4091 16.7637 9.75367 16.8609 8.80093C17.0099 7.38971 16.6518 6.46507 16.672 5.62894C16.6921 4.79281 16.7001 4.17771 16.8692 4.02877C17.0382 3.87983 16.9174 3.93628 16.9174 3.93628L16.9171 3.93575Z" fill="#A88F33"/>
<path fill-rule="evenodd" clip-rule="evenodd" d="M16.9171 10.2477C16.9171 10.2477 17.3941 9.0737 17.6125 8.03245C17.6528 7.82335 17.7331 7.61452 17.7532 7.4457C17.8537 6.46063 17.8817 6.05463 17.7532 5.51585C17.6528 5.11832 17.2669 4.76002 17.0658 4.48228C16.8688 4.19262 16.7764 4.08475 16.8166 4.0238C16.8569 3.96285 17.0135 3.8632 17.1662 3.87513C17.4941 3.88467 17.8038 4.02837 18.0227 4.27265C18.3323 4.63042 18.5774 5.84473 18.5774 5.84473L18.8353 7.44703L19.4907 9.46513L16.9176 10.2493L16.9171 10.2477Z" fill="#C99E3D"/>
<path fill-rule="evenodd" clip-rule="evenodd" d="M21.3996 9.02573C21.3996 9.02573 21.3111 9.06575 21.1505 9.02573C21.1645 9.15954 21.1023 9.28991 20.9896 9.36337C20.8208 9.29499 19.2405 9.43174 19.2405 9.43174C19.2405 9.43174 18.5048 9.30294 18.2756 8.33006C18.115 7.68263 18.3962 6.79031 18.3037 6.2033C18.163 5.33881 17.966 5.16973 17.9459 4.90074C17.9258 4.63175 17.9056 4.56311 17.9056 4.39429C17.8171 4.37415 17.7649 4.34606 17.6767 4.34606C17.6565 4.26656 17.6965 4.19712 17.6083 4.0564C17.6565 4.07654 17.9862 4.11682 18.3721 4.48254C18.6901 4.78016 18.6901 4.88855 18.738 4.94897C18.7982 5.00913 19.2848 5.42601 19.4939 5.84155C19.703 6.2571 20.109 7.58218 20.2015 7.79923C20.2296 7.88775 20.29 7.97627 20.44 8.17715C20.6732 8.46681 21.0148 8.9457 21.4007 9.0252L21.3996 9.02573Z" fill="#B58634"/>
<path fill-rule="evenodd" clip-rule="evenodd" d="M18.7948 4.96912C19.0383 5.36254 19.2571 5.77075 19.4499 6.19138C19.6871 6.72592 19.8278 7.16425 20.1255 7.52203C19.9646 7.05586 19.6792 6.13917 19.5103 5.81346C19.3214 5.46894 18.9355 5.09791 18.7948 4.96938V4.96912Z" fill="#A88F33"/>
<path fill-rule="evenodd" clip-rule="evenodd" d="M16.0609 11.5786C16.0609 11.5786 15.6549 11.6791 14.8991 12.0771C14.6497 12.2057 14.4127 12.3141 14.1835 12.4148C13.588 12.684 12.9493 12.9329 12.4426 13.0702C12.4829 13.1184 12.5028 13.1383 12.5028 13.1383C12.5028 13.1383 12.5028 13.3354 12.6114 13.4478C12.5513 13.5082 11.7469 14.055 11.9844 15.8841C12.145 15.8239 12.334 15.7434 12.362 15.7434C12.4105 15.7516 12.4225 15.8841 12.4826 15.8841C12.5428 15.8841 12.74 15.8046 12.9491 15.5343C12.9411 15.6429 12.8205 16.7364 13.4677 17.4721C13.5883 17.3314 13.8938 16.8649 13.8938 16.8649L13.9018 16.7163C13.9018 16.7163 13.9299 16.1976 14.099 15.7232C14.268 15.2489 14.5975 14.899 14.5975 14.899L16.3177 12.4426L16.0604 11.5784L16.0609 11.5786Z" fill="#E6C367"/>
<path fill-rule="evenodd" clip-rule="evenodd" d="M14.4527 15.1855C14.374 15.2411 14.2872 15.2845 14.1954 15.314C14.1673 15.2136 14.127 14.8677 14.3642 14.5301C14.6417 14.1238 15.2486 13.5972 15.4174 13.1785C15.526 12.909 15.4778 12.2337 16.4427 11.3692C17.4077 10.5047 17.7853 10.2074 17.7853 10.2074L19.3452 9.42346L21.2629 10.1793L20.3101 13.9134L19.5705 15.6625L16.6288 15.1078L14.4525 15.1855H14.4527Z" fill="#DCBA5A"/>
<path fill-rule="evenodd" clip-rule="evenodd" d="M15.5756 14.1716L15.9416 13.7134V13.3877C15.9416 13.3877 16.3476 13.279 16.7856 12.8327C17.2237 12.3864 17.8309 11.5302 18.3657 11.5824C18.9005 11.6428 18.9527 12.7442 18.9728 13.054C18.993 13.3638 19.0613 14.0669 19.1697 14.4451C19.2903 14.823 17.8672 16.2541 17.8672 16.2541L16.9006 16.9898L15.5756 14.1716Z" fill="#E9CE77"/>
<path fill-rule="evenodd" clip-rule="evenodd" d="M16.708 17.9867C16.708 17.9867 17.0056 17.5203 16.7875 17.4198C16.916 17.1304 17.1532 16.8249 17.1532 16.8249C17.1532 16.8249 17.3221 16.4069 17.8688 15.8923C18.4155 15.3776 18.7534 15.0357 18.8419 14.6901C18.8965 14.4649 18.9262 14.2344 18.9304 14.0027C18.9895 14.051 19.0528 14.094 19.1194 14.1312C19.2079 14.1715 19.6258 14.5171 19.5657 15.2128C19.5055 15.9084 19.2477 16.1978 19.2477 16.1978C19.2477 16.1978 18.9986 16.4469 18.8218 16.5757C18.6326 16.7043 18.5645 16.8529 18.2467 16.8651C18.2794 16.8392 18.3161 16.8188 18.3554 16.8047C18.3554 16.8047 18.0257 16.7647 17.8486 16.9253C17.6716 17.0859 17.2953 17.5807 17.1063 17.7296C16.9174 17.8502 16.7088 17.987 16.7088 17.987L16.708 17.9867Z" fill="#CDAE50"/>
<path fill-rule="evenodd" clip-rule="evenodd" d="M30.0755 10.1671C29.6006 9.994 29.1014 9.89635 28.5962 9.87771C27.7519 9.84962 26.5177 9.89785 25.3076 9.9058C24.005 9.91375 22.8231 9.45951 21.1829 9.37921C20.9136 9.21835 20.2288 8.51472 18.0912 10.0062C18.2197 9.99829 19.6431 9.67656 20.1374 10.2959C20.6359 10.911 20.4952 11.9562 20.427 12.2054C20.2982 12.7603 19.8801 13.5683 19.7115 14.1352C19.543 14.7021 19.5827 15 19.4621 15.3975C19.3415 15.795 19.0763 15.9924 19.2329 16.4507C19.442 16.3221 19.5509 16.3221 19.9002 15.5382C20.2495 14.7543 20.1777 14.1954 20.7567 13.532C21.3236 12.8647 22.2673 11.952 22.6262 11.7228C22.985 11.4935 25.8342 10.0142 28.8175 11.4254C29.537 11.3491 30.0758 10.1668 30.0758 10.1668L30.0755 10.1671Z" fill="#D2A83E"/>
<path fill-rule="evenodd" clip-rule="evenodd" d="M19.293 9.62016C19.2901 9.58994 19.2834 9.56021 19.2732 9.53164C19.2453 9.47285 19.2086 9.41861 19.1645 9.37077C19.1645 9.37077 18.4569 9.24224 18.0991 9.28226C17.4718 9.35063 16.905 10.1266 16.6397 10.5247C16.3744 10.9227 16.0447 11.5376 15.687 11.8553C15.6909 11.8244 15.6837 11.793 15.6668 11.7668C15.6668 11.7668 15.687 11.7949 15.6469 11.8352C15.6069 11.8755 15.6067 11.8953 15.6268 11.9147L15.6872 11.9748C15.7071 11.9748 16.262 11.7255 17.0179 11.0208C17.8219 10.2851 18.437 9.9077 18.7588 9.77837C18.9303 9.70546 19.1097 9.65237 19.2933 9.62016H19.293Z" fill="#C29637"/>
<path fill-rule="evenodd" clip-rule="evenodd" d="M33.0185 6.59729C33.0185 6.59729 32.8897 6.75789 32.7288 6.93492C32.3711 7.31284 31.9046 7.73872 31.5066 8.17706C31.1289 8.59525 30.7028 8.92096 30.2242 9.46769C29.7455 10.0144 29.1906 10.6213 29.0501 10.7983C28.9216 10.9754 28.8212 11.2648 28.8212 11.4134C28.7528 11.3652 28.6725 11.313 28.6725 11.313C28.7063 11.3761 28.7467 11.4355 28.7931 11.49C28.8935 11.6308 29.0501 11.8081 29.1307 11.9162C29.2295 12.0538 29.3005 12.2095 29.3395 12.3744C29.3878 12.3823 29.6973 12.4428 30.0834 11.8075C30.4696 11.1723 30.9757 10.4769 30.9757 10.4769L31.7798 9.28271L32.2865 8.26981L32.9226 7.13607L33.0193 6.59729H33.0185Z" fill="#AC8132"/>
<path fill-rule="evenodd" clip-rule="evenodd" d="M33.8427 5.78528C33.8427 5.78528 33.3561 6.1828 33.1672 6.42132C32.9782 6.65984 32.5311 7.28581 32.5311 7.28581L32.692 7.26566L33.5082 6.54217L33.8263 5.9753L33.8424 5.78634L33.8427 5.78528Z" fill="#A88F33"/>
<path fill-rule="evenodd" clip-rule="evenodd" d="M33.6938 37.7345C33.6938 37.7345 33.6858 37.4048 33.8708 37.2079C34.0598 37.0108 34.5381 36.7214 35.0045 35.6359C35.471 34.5503 35.5229 34.3052 35.5229 34.3052C35.5229 34.3052 34.6868 35.0207 34.1713 35.1896C34.2919 34.9402 34.3603 34.7634 34.4207 34.6346C34.3523 34.5745 34.0629 34.5061 34.0348 34.474C34.1954 34.3132 34.284 33.9191 34.6097 33.6578C35.0279 33.3397 35.7916 32.7933 36.3853 32.3062C36.9789 31.8191 38.1461 30.6861 38.295 30.3564C38.3835 30.485 38.4034 30.5653 38.4034 30.5653C38.4034 30.5653 37.8166 31.3293 37.5111 31.8156C37.2416 32.2338 37.2617 32.471 37.2617 32.471L37.8166 32.2325C37.8166 32.2325 37.9772 32.8275 37.2498 33.7322C37.5678 33.6117 37.6961 33.684 37.8768 33.5833C37.5792 33.7725 37.1692 34.0298 36.7833 34.7372C36.4054 35.4448 35.8908 36.269 35.0226 36.7834C34.1782 37.3261 33.6917 37.7321 33.6917 37.7321L33.6938 37.7345Z" fill="#A67A2E"/>
<path fill-rule="evenodd" clip-rule="evenodd" d="M31.5148 10.5856C31.5148 10.5856 31.1851 11.2728 31.1369 11.8076C31.1289 11.9364 31.0966 12.0368 31.0966 12.1855C31.0886 12.6639 31.1247 13.1987 31.0171 13.4478C30.9768 13.3473 30.9566 13.279 30.9164 13.2389C30.8562 13.4078 30.7475 13.9344 30.659 14.1313C30.619 14.0027 30.5305 13.5564 30.5387 13.0298C30.5469 12.5033 30.5586 12.4026 30.5586 12.2942C30.5387 12.4548 30.4301 12.6721 30.3898 12.8006C30.3296 12.6922 30.2612 12.5515 30.1807 12.4349C30.1324 12.5144 30.0723 12.6318 30.0201 12.6922C30.0119 12.644 29.992 12.5152 29.9798 12.3344C29.9718 12.1253 29.9596 11.8561 29.9718 11.7996C29.9917 11.6912 30.1608 11.2651 30.5186 10.875C30.9447 10.4086 31.3831 9.51228 31.5116 9.2348C31.6401 8.95733 32.1869 7.80371 32.1869 7.80371H32.605L31.9979 9.18657C31.9979 9.18657 31.6322 9.9424 31.4432 10.2201C31.2543 10.4979 30.8562 11.2937 30.6792 11.6033C30.8077 11.4344 30.9164 11.3459 31.0452 11.1851C31.1697 11.0724 31.5153 10.5861 31.5153 10.5861L31.5148 10.5856Z" fill="#8C6228"/>
<path fill-rule="evenodd" clip-rule="evenodd" d="M33.8507 5.73291C33.7824 5.94316 33.6744 6.13837 33.5327 6.308C33.2833 6.60561 32.7485 7.0034 32.4874 7.32089C32.2489 7.63043 31.7719 8.47478 31.9887 9.47575C32.0682 9.2587 32.2179 8.82858 32.616 8.342C33.014 7.85543 33.4402 7.29678 33.6495 6.86268C33.8584 6.42434 33.8865 6.07876 33.8865 6.07876L33.966 5.97832L33.9177 5.74908L33.8494 5.73291L33.8507 5.73291Z" fill="#CBA94C"/>
<path fill-rule="evenodd" clip-rule="evenodd" d="M41.9917 32.3994C41.9917 32.3994 41.8309 31.9613 41.7826 31.5632C41.7344 31.1652 41.8621 31.0862 41.7142 30.6306C41.6257 30.3532 41.4651 30.3921 41.4248 30.3532C41.3846 30.3142 41.3565 29.8949 41.3644 29.6657C41.3724 29.4365 41.3565 29.1391 41.3162 29.0103C41.256 28.9621 41.2157 28.9218 41.1272 28.6245C41.0268 28.3268 40.9786 28.1782 40.9303 28.0899C40.8821 28.0017 40.7411 27.9211 40.7411 27.8326C40.7411 27.6556 40.902 27.5633 40.902 27.5146C40.894 27.4141 40.7734 27.4947 40.7411 27.4663C40.7011 27.4181 40.8418 27.1287 40.7896 27.0884C40.7695 27.0685 40.6287 27.2374 40.5924 27.1891C40.5521 27.1406 40.5039 26.6623 40.4316 26.3448C40.3635 26.0352 40.2908 25.8102 40.2829 25.7177C40.2749 25.6292 39.7279 24.0693 39.5954 23.6914C39.4886 23.3721 39.3988 23.0473 39.3262 22.7185C39.2859 22.5296 39.2578 22.1435 39.2377 22.1837C39.2175 22.224 39.2297 22.4209 39.1974 22.413C39.1693 22.4048 39.0688 21.7176 39.0368 21.6089C39.0087 21.5003 38.8396 21.1319 38.7983 20.8653C38.758 20.5958 38.6697 19.8921 38.6093 19.4138C38.5489 18.9354 38.5208 18.7385 38.5208 18.6187C38.5307 18.3257 38.5145 18.0325 38.4726 17.7423C38.393 17.2356 38.234 16.6205 38.0946 16.263C37.8254 15.5875 37.1096 13.8588 36.9816 13.4286C36.9816 13.32 37.1223 13.3804 37.1223 13.3804C37.1223 13.3804 37.4718 14.2568 37.7292 14.9321C37.9786 15.6076 38.2158 16.2026 38.2762 16.263C38.3244 16.3232 38.7023 16.9865 38.8711 18.072C39.04 19.1575 39.1001 20.1585 39.2008 20.8258C39.2491 21.1438 39.2893 21.4812 39.3898 21.8188C39.4982 22.1848 39.667 22.5627 39.8883 23.1415C40.0772 23.6281 40.218 24.0341 40.2943 24.3839C40.3828 24.8302 40.3828 25.1678 40.435 25.3891C40.4835 25.5781 40.5556 25.9557 40.7247 26.5022C40.8938 27.0487 41.1426 27.7525 41.3114 28.1906C41.6414 29.067 41.7884 29.7987 41.8383 30.1888C41.8823 30.5909 42.0312 31.982 41.9909 32.3999L41.9917 32.3994Z" fill="#A88F33"/>
<path fill-rule="evenodd" clip-rule="evenodd" d="M33.8708 5.68465L33.8507 5.73288C33.8507 5.73288 33.9108 5.75302 33.8989 5.83359C33.8997 5.94382 33.893 6.05397 33.8788 6.16327C33.8589 6.304 33.8186 6.41239 33.8106 6.5009C33.8106 6.68986 33.8387 6.90691 33.5721 7.44569C33.4926 7.59436 33.4436 7.7229 33.4033 7.81141C33.3029 8.02846 33.2827 8.06079 33.1942 8.16124C33.3349 8.08173 33.8417 7.76371 34.0987 7.81141C33.922 7.91185 33.6524 8.10903 33.4836 8.36636C33.5239 8.37431 33.6927 8.40664 33.9606 8.36636C34.4069 8.29798 34.9054 8.13712 35.3435 8.16919C35.8221 8.19728 35.6332 7.59436 35.6332 7.59436L35.0809 6.38032L34.0356 5.6449L33.8708 5.68492V5.68465Z" fill="#BE9C44"/>
<path fill-rule="evenodd" clip-rule="evenodd" d="M36.5965 14.7787C36.5965 14.7787 36.1301 14.3123 35.9411 12.7115C35.7521 11.1034 35.7924 8.73629 35.7924 8.73629L35.4145 7.81165C35.4145 7.81165 35.335 7.19654 35.137 6.96757C34.9391 6.73859 34.5503 6.35246 34.3733 6.1635C34.1962 5.97455 33.9953 5.71721 33.8748 5.67693C33.9349 5.57649 34.2044 5.00962 35.2375 5.00167C36.2705 4.99372 36.5891 5.56854 36.6969 5.77764C36.8048 5.98674 37.2919 6.89071 37.4726 8.61332C37.6414 10.3338 37.6497 10.4626 37.6216 11.0576C37.6014 11.3873 37.4928 12.151 37.3035 12.967C37.1308 13.6587 36.9418 14.4307 36.596 14.7803L36.5965 14.7787Z" fill="#A17C34"/>
<path fill-rule="evenodd" clip-rule="evenodd" d="M35.1338 16.1496C35.2893 16.1609 35.4446 16.1258 35.5801 16.0489C35.7288 16.041 36.2676 16.1094 36.6815 15.5828C36.7096 15.7031 36.7822 16.0291 36.593 16.3185C36.6937 16.2177 36.8424 16.1777 36.8625 16.1496C36.8705 16.2983 37.0112 16.7565 36.4162 17.8701C36.5768 17.6934 36.7658 17.7013 36.9346 17.6812C36.9428 17.8903 37.0552 18.5936 36.7579 18.9718C36.5609 19.2291 36.2392 19.1486 36.2392 19.1486C36.2439 19.0924 36.2439 19.0359 36.2392 18.9798C36.2313 18.8711 36.191 18.7627 36.2193 18.6904C36.0639 18.6193 35.9223 18.5213 35.8011 18.4007C35.4513 18.071 34.9971 17.5084 34.965 17.0902C34.9247 16.6238 35.3429 16.5233 35.3429 16.5233C35.3079 16.492 35.278 16.4553 35.2544 16.4147C35.2343 16.3465 35.2141 16.2379 35.1338 16.1496Z" fill="#8C6228"/>
<path fill-rule="evenodd" clip-rule="evenodd" d="M32.0332 11.0921C32.0332 11.0921 32.0131 11.064 31.9047 11.1925C31.9248 11.064 31.9449 10.9431 31.9529 10.8265C32.0042 10.7186 32.0706 10.6184 32.1501 10.5292C32.0896 10.6495 32.0494 10.7581 32.0494 10.7581C32.0494 10.7581 32.1983 10.4807 32.4154 10.3118C32.564 10.1913 32.753 10.1351 32.8333 10.0224C32.9218 9.90187 32.9017 9.88173 32.9218 9.86158C32.9218 9.86158 33.119 9.73305 33.4206 9.35487C33.4606 9.30664 33.521 9.25443 33.5613 9.2062C33.6294 9.1781 33.7903 9.10575 33.9792 9.00902C34.1764 8.90063 34.3974 8.75196 34.5342 8.691C34.8034 8.57042 35.0891 8.58261 35.2216 8.39339C35.3221 8.3653 35.4305 8.06371 35.4106 7.80664C35.5593 7.8668 36.323 8.34118 36.5846 9.37846C36.7736 10.1141 36.4357 11.2479 36.2949 11.7949C36.1542 12.3419 36.1343 12.7476 35.9372 12.9967C35.6878 13.3267 34.884 13.7918 34.6868 14.0221C34.518 14.211 34.0115 14.6894 34.0314 15.035C34.0516 15.2923 34.3691 15.4325 34.4377 15.4813C34.5063 15.53 34.5058 15.5899 34.6346 15.5608C34.7634 15.5316 34.8114 15.4723 34.8638 15.4723C34.924 15.4802 34.924 15.4924 34.9521 15.4924C34.9725 15.4918 34.9927 15.489 35.0125 15.4842C35.0125 15.4842 34.9924 15.8502 34.1361 15.9612C34.0757 15.9694 34.0155 15.9893 33.9389 16.0015C34.0396 15.9533 34.0998 15.9533 34.2085 15.8046C34.0879 15.7845 33.742 15.7643 33.6535 15.7362C33.6816 15.688 33.7741 15.5592 33.8504 15.499C33.9188 15.4389 33.8425 15.4195 33.7823 15.4508C33.6787 15.5213 33.5794 15.5977 33.4847 15.6798C33.3843 15.7683 33.2957 15.8889 33.1349 15.9978C33.0866 15.8369 33.0946 15.5314 33.2838 15.3103C33.2353 15.3183 33.1428 15.459 33.0546 15.4309C33.0386 15.2843 33.0481 15.136 33.0827 14.9926C33.1309 14.8116 33.3922 14.4941 33.3922 14.4941L34.6545 12.2385L34.9237 10.53L32.0332 11.0915V11.0921Z" fill="#92723A"/>
<path fill-rule="evenodd" clip-rule="evenodd" d="M31.965 11.1885C31.965 11.1885 31.8966 11.2367 32.0334 11.3292C32.0132 11.3573 31.965 11.4577 31.9046 11.5261C31.8365 11.6056 31.7639 11.6549 31.7358 11.7233C31.6756 11.864 31.6274 11.9605 31.6274 12.0209C31.6274 12.0813 31.6072 12.4672 31.4384 12.7163C31.378 12.8048 31.3096 12.9535 31.2614 13.0539C31.1609 13.2307 31.0724 13.3719 31.0523 13.4514C31.0123 13.5922 30.9842 13.978 30.9842 13.978C30.9842 13.978 31.0727 13.8694 31.1048 13.8294C31.0563 13.9298 31.0041 14.0382 30.9277 14.1188C30.976 14.0785 31.1167 13.978 31.3539 13.7689C31.6836 13.4917 32.1982 13.0253 32.8255 12.6559C32.6363 12.7242 32.4757 12.7242 32.3472 12.7444C32.4476 12.6439 33.3521 11.5825 33.8265 11.4821C33.8553 11.4456 33.8696 11.3997 33.8668 11.3533L33.4605 11.3133L32.6363 11.49L32.516 10.854L31.965 11.1877V11.1885Z" fill="#B18E3E"/>
<path fill-rule="evenodd" clip-rule="evenodd" d="M33.2758 14.8068C33.2758 14.8068 33.1671 14.9152 33.0667 15.1848C32.9894 15.104 32.9231 15.0134 32.8695 14.9152C32.7209 14.6661 32.4919 14.3484 31.9571 14.5294C31.9491 14.3606 31.9369 14.272 31.9571 14.1515C32.0456 14.1316 32.3148 13.9145 32.5841 13.5968C32.7733 13.3797 32.9501 13.1303 33.0707 12.8129C33.1502 12.7524 33.2877 12.652 33.4682 12.5354C33.7255 12.3586 34.0351 12.1172 34.0833 11.8479C33.9627 11.8962 33.7054 12.0167 33.3193 11.9969C33.4682 11.9285 33.6972 11.8561 33.6691 11.5585C33.7295 11.5182 33.7777 11.4901 33.7777 11.4901C33.7324 11.475 33.6848 11.4682 33.637 11.47C33.6288 11.4419 33.6169 11.4019 33.5485 11.4218C33.4801 11.4417 33.469 11.4419 33.46 11.47C33.4319 11.4782 33.3394 11.47 33.271 11.5185C33.2027 11.567 33.0137 11.7273 32.9413 11.7554C32.9694 11.7072 33.0095 11.6351 33.0095 11.6351C33.0095 11.6351 32.8125 11.655 32.6718 11.7146C32.4145 11.8031 32.1171 11.964 31.8156 12.1206C31.8436 12.0724 31.8558 12.0411 31.8757 12.0321C31.8956 12.0231 31.9441 12.0122 31.9441 12.004C31.9441 11.9958 31.9242 11.9245 31.9361 11.8956C32.0263 11.7046 32.1327 11.5217 32.2542 11.3489C32.3949 11.1597 32.423 10.8904 32.423 10.8904L33.0381 10.5809L34.7668 10.1833L35.8886 10.2517L35.7479 11.0277L35.0853 12.3825L34.5185 13.6166L33.871 14.3727L33.2761 14.8068H33.2758Z" fill="#543E26"/>
<path fill-rule="evenodd" clip-rule="evenodd" d="M36.0778 11.4487C36.0778 11.4487 35.4023 12.2849 35.2134 12.4137C35.3339 12.1563 36.0778 10.6245 36.3471 10.1984C36.2869 10.1501 36.2064 10.1501 36.3953 9.40332C36.2347 9.78097 36.1783 9.97814 36.0458 10.0786C35.9133 10.179 35.8968 10.147 35.8073 10.147C35.8242 10.1164 35.8311 10.0813 35.8271 10.0465C35.8271 10.0465 35.2603 9.97814 34.8731 9.97814C34.4859 9.97814 33.7195 10.1872 33.293 10.3561C32.9554 10.4968 32.7665 10.4968 32.6459 10.585C32.5253 10.6855 32.4569 10.7941 32.3965 10.8222C32.3483 10.8503 32.1193 10.9227 32.0668 10.999C32.0186 11.0785 31.9383 11.1678 31.9383 11.1879C31.9383 11.2081 31.9181 11.2364 31.9786 11.216C31.9984 11.2081 32.1474 11.1275 32.3162 11.0271C32.5452 10.8985 32.8226 10.7499 33.0238 10.6614C33.5986 10.4321 33.7796 10.4724 34.0367 10.4242C34.3059 10.3759 34.6921 10.2633 34.9491 10.2633C35.2065 10.2554 35.693 10.2633 35.8057 10.2834C35.7574 10.3237 35.7172 10.372 35.7373 10.5408C35.7373 10.589 35.697 10.6412 35.6578 10.7578C35.5375 11.0875 35.3082 11.6342 35.1808 11.9117C35.004 12.2894 34.8031 12.6071 34.7037 12.804C34.6044 13.0009 34.3857 13.5196 34.1692 13.797C33.9527 14.0745 33.8395 14.2433 33.7717 14.3038C33.7038 14.3642 33.2167 14.7217 33.253 14.8505C33.3415 14.8224 33.9005 14.612 34.3062 14.1551C34.712 13.6982 34.7928 13.4194 35.1103 13.17C35.4278 12.9206 35.6771 12.5027 35.8258 12.1571C35.9504 11.8354 35.9223 11.7349 36.0789 11.4495L36.0778 11.4487Z" fill="#806031"/>
<path fill-rule="evenodd" clip-rule="evenodd" d="M21.5205 17.6893C21.5205 17.6893 21.432 18.055 21.2308 18.236C21.0339 18.4131 20.6841 18.5657 20.6441 18.8633C20.5958 19.1607 20.9939 19.3096 20.9939 19.3096C20.9939 19.3096 20.7766 19.6674 20.7766 19.9367C20.7766 20.2141 20.7686 20.2663 20.7967 20.5316C20.7648 20.5521 20.7377 20.5792 20.7172 20.6111C20.7172 20.6111 20.7371 20.8685 20.9343 21.0291C21.1314 21.1897 21.3 21.2864 21.4004 21.2461C21.4158 21.2789 21.4292 21.3125 21.4407 21.3468C21.4407 21.3468 21.5897 20.9689 21.6901 20.6392C21.7905 20.3016 21.879 20.3496 21.9191 19.8953C21.9591 19.4411 22.3961 18.6611 22.3961 18.6611L22.6942 17.9946L22.2079 17.6167L21.5205 17.689V17.6893Z" fill="#B6903C"/>
<path fill-rule="evenodd" clip-rule="evenodd" d="M22.4249 18.3445C22.3247 18.4474 22.2321 18.5576 22.148 18.6742C22.0195 18.8512 21.919 19.0118 21.7301 19.0804C21.5411 19.1491 21.4205 19.1485 21.4325 19.3378C21.4444 19.527 21.6214 19.607 21.7219 19.7035C21.8305 19.8039 21.919 19.9727 21.8708 20.162C21.9309 20.1339 22.0396 20.1015 22.14 19.8845C22.2405 19.6674 22.943 18.3447 22.943 18.3447H22.4249V18.3445Z" fill="#685026"/>
<path fill-rule="evenodd" clip-rule="evenodd" d="M25.1957 15.293C25.1957 15.293 25.2559 15.1324 25.1957 15.0158C25.1353 14.8952 24.7696 14.855 24.5886 14.7182C24.3996 14.5775 24.1704 14.4797 23.9814 14.5414C24.0095 14.4731 24.1221 14.3241 24.0296 14.2921C23.9411 14.264 23.6117 14.4126 23.5232 14.481C23.4347 14.5494 23.2335 14.6297 23.1935 14.6782C23.1535 14.7267 23.0849 14.8189 23.0446 14.7786C23.0043 14.7505 22.9844 14.6782 22.916 14.7182C22.8477 14.7582 22.5185 15.0278 22.4578 15.1846C22.3971 15.3415 22.2607 15.6914 21.8507 16.0891C21.4407 16.4869 21.2637 16.7445 21.3842 16.8932C21.5048 17.0419 21.5613 16.9335 21.5814 17.062C21.5969 17.1882 21.5901 17.3161 21.5613 17.4399C21.513 17.649 21.4327 17.8459 21.5411 17.8862C21.8186 17.9747 22.0881 17.8067 22.1483 17.8581C22.2689 17.9665 22.0799 18.3566 22.3653 18.433C22.655 18.5125 22.9404 18.3646 22.9404 18.3646L23.9936 17.7977L25.0068 17.2632L25.5251 16.2378L25.2471 15.3815L25.1941 15.293H25.1957Z" fill="#D4B968"/>
<path fill-rule="evenodd" clip-rule="evenodd" d="M24.2019 17.7416C24.2019 17.7416 24.0249 17.4723 24.2422 17.2349C24.4595 16.9974 24.7688 16.8972 24.8893 16.7486C24.8664 16.7203 24.8356 16.6993 24.8008 16.6884C24.8809 16.5452 25.003 16.43 25.1507 16.3585C25.0905 16.2983 25.0099 16.2501 24.9217 16.2501C24.7245 16.2501 24.6037 16.3707 24.4229 16.3707C24.2461 16.3707 24.226 16.2821 24.226 16.2821C24.226 16.2821 24.5236 16.254 24.4953 16.1213C24.4672 15.9805 24.4158 15.9805 24.4158 15.9805C24.4158 15.9805 24.9906 15.742 25.091 15.6148C25.1915 15.4876 25.1795 15.3373 25.1997 15.2772C25.2678 15.2772 25.6658 15.0681 25.8267 15.1566C25.9876 15.2451 25.8749 15.4863 25.8749 15.4863C25.8749 15.4863 26.3618 15.1203 26.6098 14.7615C26.8269 14.7816 26.9279 14.6128 27.0869 14.6128C27.284 14.6128 27.5936 14.8821 27.6537 15.4569C27.694 15.7866 27.7542 15.9755 27.694 16.5585C27.6659 16.8882 27.6739 17.5921 27.7735 17.9414C27.8416 18.2189 28.0025 18.1908 28.0025 18.1908C27.9778 18.2753 27.9289 18.3508 27.8618 18.4078C27.7531 18.5083 27.7412 18.7738 27.7531 18.8743C27.7691 18.9477 27.7893 19.0202 27.8135 19.0913C27.8135 19.0913 27.685 19.24 27.6527 19.3407C27.6246 19.4411 27.4921 19.5095 27.3953 19.5095C27.2986 19.5095 27.3471 19.5013 27.2186 19.5095C27.09 19.5177 27.0498 19.5376 26.9692 19.5095C26.8886 19.4814 26.8285 19.4491 26.8608 19.1915C26.8889 18.9342 25.8678 18.3352 25.8678 18.3352L24.1982 17.7403L24.2019 17.7416Z" fill="#CCA849"/>
<path fill-rule="evenodd" clip-rule="evenodd" d="M22.2843 20.2823C22.2843 20.2823 22.65 20.7689 24.1537 20.7689C24.8693 20.7689 25.1186 20.7005 25.2668 20.6602C25.4277 20.62 26.0306 20.383 26.6377 19.6672C27.1845 19.0201 27.0639 18.7548 27.0639 18.7548L26.7458 18.7065L25.7123 18.8473L22.654 20.1498L22.283 20.2823H22.2843Z" fill="#585136"/>
<path fill-rule="evenodd" clip-rule="evenodd" d="M23.4058 20.4028C23.4058 20.4028 22.1033 20.6925 22.1033 19.8683C22.1033 19.0642 22.9073 18.2199 23.1085 18.0712C23.3176 17.9223 23.8161 17.7532 23.8161 17.7532H25.0182L25.2472 18.3603L25.1467 19.6708L23.4058 20.4026V20.4028Z" fill="#252211"/>
<path fill-rule="evenodd" clip-rule="evenodd" d="M24.608 17.9989C24.608 17.9989 24.3589 17.7696 23.792 18.0784C23.2251 18.3871 22.7666 19.0324 22.7385 19.6184C22.7104 20.1367 23.1647 20.5229 23.8723 20.543C24.3989 20.5629 24.7166 20.5027 24.8775 20.4635C24.8372 20.4153 24.6281 20.154 24.6281 20.154L24.6082 17.9991L24.608 17.9989Z" fill="#C3B378"/>
<path fill-rule="evenodd" clip-rule="evenodd" d="M24.3628 18.1272C24.3628 18.1272 24.3027 18.0789 24.1243 18.1754C23.9756 18.2549 23.7586 18.4651 23.5898 18.6137C23.4811 18.7023 23.4127 18.7423 23.3513 18.8106C23.1019 19.1083 22.8928 19.5948 23.0136 19.836C23.1345 20.0772 23.5323 20.3546 24.5454 20.1657L24.3599 18.1274L24.3628 18.1272Z" fill="#E6D89C"/>
<path fill-rule="evenodd" clip-rule="evenodd" d="M24.0331 18.6259C24.0331 18.6259 23.8723 18.8752 23.8723 19.2733C23.8723 19.6793 24.1015 20.3265 24.9459 20.3747C25.593 20.415 26.0271 19.4421 26.4975 19.0642C26.8553 18.7748 27.0724 18.7666 27.0724 18.7666C27.0724 18.7666 26.7066 18.3691 25.7298 17.8541C24.7649 17.3355 23.6833 17.2671 23.0963 18.0632C23.3738 18.0431 24.2703 17.8139 24.2703 17.8139L24.7087 17.9546L24.0331 18.6261V18.6259Z" fill="#252211"/>
<path fill-rule="evenodd" clip-rule="evenodd" d="M25.2954 19.1525C25.2673 19.0923 25.2472 19.0118 25.3638 18.9919C25.4804 18.972 25.5326 18.9837 25.5729 19.0714C25.6131 19.1591 25.6524 19.2323 25.5927 19.2686C25.5326 19.3006 25.3757 19.2686 25.2951 19.152L25.2954 19.1525ZM25.1063 18.5856C25.1063 18.5856 25.0661 18.6137 25.0862 18.5575C25.0942 18.4894 25.1466 18.3686 25.2752 18.3969C25.4037 18.4253 25.3759 18.5658 25.3547 18.606C25.3335 18.6463 25.2261 18.7144 25.1456 18.6855C25.1249 18.6802 25.1079 18.6654 25.0999 18.6455C25.092 18.6257 25.094 18.6032 25.1053 18.5851L25.1063 18.5856Z" fill="#6F674D"/>
<path fill-rule="evenodd" clip-rule="evenodd" d="M14.224 18.8428C14.224 18.8428 14.542 19.0813 14.9115 19.072C15.2772 19.0638 15.7476 18.6861 15.9646 18.4447C16.0932 18.304 16.2031 18.1553 16.3224 18.0387C16.4231 17.9383 16.4912 17.89 16.5395 17.8217C16.6078 17.7422 16.6802 17.5927 16.7165 17.5442C16.628 17.6126 16.4994 17.7334 16.3667 17.8137C16.2381 17.8932 15.9607 18.0427 15.848 18.083C15.7396 18.1233 14.6138 18.719 14.6138 18.719L14.224 18.8428Z" fill="#AC924C"/>
<path fill-rule="evenodd" clip-rule="evenodd" d="M14.7101 15.8722C14.7101 15.8722 14.8868 15.7516 15.2287 15.675C15.5584 15.5955 16.2217 15.5343 16.2217 15.5343L16.7685 15.7728L16.9855 16.597L16.588 17.4536L16.0815 17.7716L15.5065 16.8469L14.7114 15.8738L14.7101 15.8722Z" fill="#9F8E57"/>
<path fill-rule="evenodd" clip-rule="evenodd" d="M13.9945 16.6079L13.8053 16.7491C13.8053 16.7491 13.8538 16.6606 13.8938 16.3914C13.9338 16.1221 14.1432 15.4667 14.4488 15.0888C14.7543 14.7109 14.7464 14.731 14.7464 14.731C14.6895 14.7206 14.6309 14.7352 14.5855 14.7711C14.6258 14.682 14.8831 14.364 15.1405 14.205C15.3978 14.046 15.4982 13.9959 15.7675 14.1255C16.0367 14.2551 16.1051 14.3224 16.3023 14.3144C16.4995 14.3065 16.668 14.0974 16.668 14.0974C16.668 14.0974 16.7083 14.2259 16.5596 14.5235C16.4109 14.8211 15.8239 15.428 15.8239 15.428L14.6017 16.2642L13.9945 16.6087V16.6079Z" fill="#EAC970"/>
<path fill-rule="evenodd" clip-rule="evenodd" d="M14.8988 15.7717C14.8988 15.7717 15.7834 15.8922 16.0526 15.6431C16.0606 15.6712 16.0929 15.6712 16.0929 15.6914C16.0908 15.7065 16.0837 15.7206 16.0728 15.7314C16.1021 15.7267 16.1317 15.724 16.1613 15.7234C16.1967 15.734 16.2331 15.7407 16.27 15.7436C16.2996 15.7429 16.3292 15.7402 16.3585 15.7353C16.3528 15.7757 16.331 15.8121 16.2981 15.8361C16.3383 15.8361 16.3776 15.844 16.3776 15.8761C16.3776 15.9081 16.3855 16.0049 16.3373 16.025C16.2973 16.0361 16.2548 16.0332 16.2167 16.0168C16.2199 16.0929 16.2406 16.1673 16.2771 16.2341C16.3566 16.3828 16.5262 16.5521 16.7542 16.5034C16.7542 16.5034 16.8745 16.7928 16.368 17.436C16.2999 17.5245 16.2273 17.6451 16.139 17.7455C16.1042 17.8215 16.0775 17.901 16.0595 17.9827C16.0595 17.9827 16.9161 17.653 17.1612 16.9012C17.4106 16.1453 17.4588 15.4017 17.4106 14.7063C17.4024 14.5091 17.3703 14.3687 17.3221 14.2679C17.2015 14.0186 16.8636 14.0588 16.7271 14.1996C16.5299 14.3967 16.2003 14.887 15.742 15.2247C15.2756 15.5623 15.2557 15.6222 14.8977 15.7717H14.8988Z" fill="#D7BC6B"/>
<path fill-rule="evenodd" clip-rule="evenodd" d="M13.8376 16.8572C13.8376 16.8572 13.6688 16.9576 13.5802 17.3342C13.4917 17.7201 13.6598 18.1905 13.757 18.3391C13.8543 18.4878 14.075 18.8941 14.533 18.9142C14.6463 18.9136 14.7584 18.8904 14.8627 18.8458C15.0225 18.7725 15.1725 18.6793 15.309 18.5684C15.5061 18.4197 15.6667 18.2912 15.6466 18.279C15.5984 18.2588 14.4325 17.2939 14.4325 17.2939L13.9942 16.8047L13.8373 16.8577L13.8376 16.8572Z" fill="#585136"/>
<path fill-rule="evenodd" clip-rule="evenodd" d="M14.9396 18.4571C14.9396 18.4571 15.1768 18.4372 15.3175 18.3487C15.4582 18.2602 14.4933 17.3035 14.4933 17.3035L14.5617 18.337L14.9396 18.4571Z" fill="#453A25"/>
<path fill-rule="evenodd" clip-rule="evenodd" d="M13.9139 16.7847C13.9139 16.7847 13.7933 17.0139 13.7933 17.0743C13.7731 17.2712 13.8336 17.8903 13.8818 18.0872C13.93 18.2963 14.1913 18.6138 14.5292 18.6138C14.7381 18.6138 15.0277 18.4853 15.0277 18.4532C15.0277 18.4129 14.7301 18.3737 14.6498 18.224C14.6016 18.1445 14.5814 17.9468 14.5703 17.7469C14.5624 17.6184 14.5624 17.4777 14.6106 17.4289C14.7193 17.3083 14.7391 16.9625 14.7391 16.9625L15.125 16.2456H14.6175L14.0103 16.6235L13.9139 16.7847Z" fill="#84754B"/>
<path fill-rule="evenodd" clip-rule="evenodd" d="M13.7653 17.0059C13.7653 17.0059 14.1628 16.4793 14.5211 16.3585C14.8794 16.2376 15.0397 16.3102 15.0397 16.3102L14.8306 16.845L14.533 17.1747L14.5532 17.3435C14.5532 17.3435 14.5047 17.7898 14.8023 18.0994C15.0999 18.4089 15.3209 18.397 15.4497 18.397C15.5785 18.397 15.9482 18.2883 16.1372 17.842C16.306 17.4241 16.4467 16.888 16.1091 16.3505C15.7791 15.8157 15.1964 15.795 15.0837 15.795C14.9711 15.795 14.0867 15.8393 13.7653 17.0051V17.0059Z" fill="#252211"/>
<path fill-rule="evenodd" clip-rule="evenodd" d="M23.9727 18.7948C23.824 18.7264 23.9647 18.3085 24.1134 18.1797C24.2621 18.0509 24.451 17.9024 24.781 17.882C24.9013 17.8741 25.0179 17.9504 24.998 18.031C24.97 18.1797 24.7609 18.3888 24.5719 18.5374C24.3106 18.7426 24.1415 18.8711 23.9727 18.7948Z" fill="#F7F7E7"/>
<path fill-rule="evenodd" clip-rule="evenodd" d="M15.932 16.5154C16.0407 16.5074 16.1814 16.5949 16.2095 16.7126C16.2376 16.8411 16.1411 17.0984 15.932 17.0984C15.7632 17.0984 15.6747 16.8893 15.6747 16.8292C15.6766 16.7797 15.6904 16.7314 15.715 16.6885C15.7229 16.6763 15.7431 16.5355 15.932 16.5154Z" fill="#F8F6DE"/>
<path fill-rule="evenodd" clip-rule="evenodd" d="M14.3642 16.6079C14.3642 16.6079 14.0868 16.7364 13.9582 17.0054C13.8664 17.2041 13.8386 17.4263 13.8787 17.6415C13.8989 17.7419 13.9993 17.991 14.0677 18.0796C14.1361 18.1681 14.2285 18.2285 14.2969 18.2203C14.3653 18.2121 14.5057 18.0313 14.5057 17.9229C14.5057 17.8145 14.514 17.3561 14.6465 17.1067C14.7631 16.8576 14.365 16.6082 14.365 16.6082L14.3642 16.6079Z" fill="#D4C38B"/>
<path fill-rule="evenodd" clip-rule="evenodd" d="M14.4045 16.5876C14.3563 16.6157 14.2759 16.656 14.2958 16.7082C14.316 16.7565 14.4848 16.7877 14.5452 16.9054C14.6136 17.026 14.6136 17.1545 14.5934 17.2149C14.646 17.19 14.6936 17.1559 14.7342 17.1142C14.8227 17.0138 14.9311 16.8773 15.0236 16.8773C15.084 16.8773 15.1441 16.9054 15.2006 16.9054C15.2891 16.9054 15.3774 16.8773 15.3896 16.7848C15.4094 16.6642 15.2207 16.5556 15.1121 16.5757C15.1322 16.4962 15.1603 16.3788 15.0718 16.2982C14.9833 16.2177 14.7061 16.3587 14.6456 16.399C14.5852 16.4392 14.4045 16.5879 14.4045 16.5879V16.5876Z" fill="#E2D59D"/>
<path fill-rule="evenodd" clip-rule="evenodd" d="M20.7927 25.0343L21.3877 24.8586L21.5565 24.9792C21.5565 24.9792 21.6768 25.2366 21.866 25.2686C21.8056 25.3972 21.6487 25.5071 21.6569 25.5983C21.6651 25.6895 21.7454 25.7592 21.7454 25.7592C21.7454 25.7592 21.2106 26.6435 22.2641 27.5348C22.0147 27.6352 21.6972 27.7733 21.5284 27.8528C21.6487 27.8809 21.906 27.9323 22.0147 28.0298C22.1233 28.1274 22.1233 28.1584 22.2238 28.2188C22.3242 28.2792 22.3844 28.3595 22.3645 28.3956C22.2961 28.3553 22.0669 28.235 22.0269 28.3473C21.9869 28.4597 21.0339 28.4157 21.0339 28.4157L19.4257 28.7252C19.4257 28.7252 19.4859 28.5644 19.3171 28.4157C19.1202 28.2389 18.879 28.4237 18.6217 28.2267C18.284 27.9694 18.2718 27.6718 18.1635 27.5594C18.2718 27.4911 18.4931 27.3906 19.0197 27.3209C18.9996 27.2806 18.9312 27.1601 18.9715 27.0517C19.0197 26.9109 19.2206 26.8224 19.1604 26.6541C19.249 26.634 19.289 26.634 19.5103 26.3565C19.7194 26.079 19.8479 26.0189 20.0088 25.9987C20.1696 25.9786 20.2661 25.9987 20.5637 25.7213C20.7725 25.5244 20.7044 25.3555 20.7044 25.3555C20.7044 25.3555 20.8409 25.3113 20.793 25.0338L20.7927 25.0343Z" fill="#CBAC5A"/>
<path fill-rule="evenodd" clip-rule="evenodd" d="M19.0359 25.1237C19.0438 25.0834 19.0762 25.0632 19.2932 25.0834C19.5103 25.1035 20.8852 24.9548 21.2591 24.9347C21.637 24.9066 22.9677 24.9265 23.6151 25.0632C24.2626 25.2 24.9177 25.3609 25.2352 25.4412C25.5532 25.5297 25.6534 25.5615 25.6412 25.6018C25.6332 25.642 25.5617 25.6813 25.5206 25.6701C25.4806 25.6622 24.4271 25.3404 24.1017 25.2726C23.7763 25.2048 22.6502 25.0232 22.0346 25.0341C21.4597 25.0423 21.2305 25.0261 20.7442 25.0823C20.2576 25.1427 19.4536 25.223 19.2124 25.191C18.9739 25.1629 19.0232 25.1629 19.0354 25.1226L19.0359 25.1237Z" fill="#D6BC6F"/>
<path fill-rule="evenodd" clip-rule="evenodd" d="M22.272 28.2747C22.272 28.2747 23.0962 28.7209 23.3938 29.2677C23.6109 29.6737 23.2653 29.8748 23.2653 29.8748C23.2653 29.8748 23.7317 29.8748 23.6713 30.1322C23.6432 30.2928 22.8672 30.7269 22.3486 30.9561C21.822 31.1853 21.8421 31.1734 21.5848 31.2134C21.3354 31.2537 20.6519 31.1339 20.5112 31.334C20.3705 31.5341 20.4317 31.7403 20.4709 31.7723C20.5112 31.8004 20.8369 31.8407 20.8369 31.8407C20.8369 31.8407 20.7685 32.0297 20.0933 32.0498C19.418 32.07 19.2489 32.1179 19.2087 32.1905C19.1684 32.2587 19.3372 32.2186 19.647 32.2701C19.9565 32.3183 20.3906 32.3496 20.3906 32.3496C20.3906 32.3496 20.2499 32.4701 19.8842 32.5666C19.466 32.675 18.8106 32.7757 18.6137 32.8963C18.7141 32.9647 18.8631 33.0651 18.9317 33.0731C18.7629 33.1133 18.5254 33.2019 18.4854 33.2339C18.5456 33.2742 18.6261 33.3224 18.6261 33.3224C18.6261 33.3224 18.2882 33.7284 18.0913 33.8291C17.8944 33.9299 16.7607 34.4562 16.3706 34.3557C15.3977 34.0984 15.2771 33.033 15.0399 32.9527C14.6822 32.8322 14.5133 33.0731 14.1956 32.9042C14.3363 32.8038 14.4129 32.7436 14.5616 32.6753C14.4007 32.5958 13.5686 32.0681 13.5686 32.0681C13.4815 31.8784 13.3849 31.6933 13.2792 31.5134C13.1183 31.236 12.8816 30.866 12.7041 30.5403C12.3182 29.8247 12.2981 29.4951 11.9482 29.0891C12.0087 29.0095 12.2175 29.0207 12.2175 29.0207L15.1486 29.9856L20.3458 30.1361L21.6974 28.2065L22.2723 28.2749L22.272 28.2747Z" fill="#DFC677"/>
<path fill-rule="evenodd" clip-rule="evenodd" d="M14.5734 31.2174C14.6047 31.2524 14.6413 31.2822 14.6818 31.306C14.7825 31.3743 14.9311 31.4549 15.0316 31.5752C15.0719 31.5151 15.1723 31.4064 15.3496 31.5752C15.5269 31.744 15.7471 31.6237 15.8841 31.6637C16.0249 31.7122 16.0328 31.7321 16.0328 31.7321C16.0328 31.7321 16.1123 31.6637 16.2901 31.5914C16.3988 31.5511 16.5273 31.523 16.6681 31.483C16.7966 31.4549 16.9373 31.4146 17.034 31.4146C17.1226 31.4748 17.4401 31.8121 18.7145 31.3142C19.9166 30.8477 20.1938 30.7955 20.395 30.8676C20.4151 30.8194 20.4353 30.7269 20.7448 30.7391C20.7448 30.6106 20.4875 30.1722 20.4875 30.1722L19.0683 29.6859H18.2921L15.9644 30.1121L14.6746 30.848L14.5742 31.219L14.5734 31.2174Z" fill="#C4A859"/>
<path fill-rule="evenodd" clip-rule="evenodd" d="M13.7974 30.4015C13.7974 30.4015 13.8255 30.6185 14.1472 30.8478C14.4652 31.0767 14.5651 31.2135 14.5651 31.2135C14.5651 31.2135 14.6255 31.134 14.6738 31.0529C14.722 30.9644 14.7623 30.8639 14.8426 30.8358C15.0035 30.7675 15.3692 30.896 15.4497 30.8759C15.5181 30.856 15.498 30.7153 15.5703 30.7153C15.7391 30.707 15.8475 30.8237 15.908 30.8237C15.9684 30.8237 16.1168 30.8157 16.1369 30.7836C16.1571 30.7516 16.165 30.4176 16.3943 30.2568C16.6436 30.08 16.9492 30.1563 17.0303 30.1966C17.0303 30.2568 17.0383 30.4057 17.1991 30.4137C17.36 30.4216 17.3759 30.3935 17.5171 30.4418C17.6584 30.49 17.8267 30.4338 17.903 30.6707C17.9714 30.6509 18.1322 30.6307 18.092 30.4015C18.1715 30.3413 18.2409 30.301 18.41 30.0638C18.4503 30.0037 18.5184 29.9353 18.5709 29.8468C18.7116 29.8468 18.8804 29.8187 19.1054 30.0156C19.037 30.0638 18.9967 30.0951 18.9769 30.1441C19.0357 30.2024 19.0894 30.2656 19.1375 30.3331C19.1979 30.4126 19.2382 30.5101 19.3145 30.5303C19.4833 30.5785 19.7608 30.5101 20.0703 30.5303C20.3679 30.5504 20.6171 30.6588 20.7257 30.7272C20.766 30.7073 20.766 30.6991 20.8664 30.7192C20.9669 30.7394 21.0432 30.7473 20.9348 30.6188C20.995 30.6469 21.0633 30.7073 21.1238 30.6469C21.1842 30.5865 21.2322 30.4982 21.401 30.4781C21.5698 30.4579 21.6302 30.486 21.6986 30.3093C21.7871 30.0922 21.4815 30.0922 21.4815 30.0922C21.4815 30.0922 21.6223 29.9634 21.7792 29.7946C21.9681 29.6178 22.1852 29.3886 22.2374 29.1071C22.3259 28.5885 21.8194 28.5204 21.8194 28.5204L19.363 29.2762L16.3598 29.1273L13.799 30.4017L13.7974 30.4015Z" fill="#927D49"/>
<path fill-rule="evenodd" clip-rule="evenodd" d="M11.5902 23.3056C11.5902 23.3056 11.5107 23.406 11.4617 23.6432C11.4127 23.8804 11.4336 23.8523 11.3933 24.0211C11.3531 24.1899 10.8583 25.8704 11.0438 26.4373C11.2293 27.0042 11.5505 27.2133 11.7514 27.6715C11.7917 27.7719 11.8309 27.8323 11.8518 27.9209C11.9202 28.2182 11.86 28.4474 11.9403 28.7451C11.9684 28.8455 12.041 28.9621 12.1494 29.0827C12.3879 29.3318 12.7767 29.569 12.9445 29.7378C13.1814 29.9872 13.5193 30.4939 13.9494 30.5419C14.1787 30.57 14.5044 30.4735 14.7736 30.3129C15.0121 30.164 15.1595 29.9551 15.4097 29.8359C15.5864 29.7473 15.7754 29.7153 15.9442 29.675C16.294 29.6066 16.6118 29.5955 16.8007 29.6347C17.0901 29.6951 17.7736 29.9042 18.1523 29.9042C18.4483 29.8995 18.7425 29.859 19.0287 29.7837C19.6036 29.6148 20.299 29.3252 20.7575 29.1966C21.0267 29.1171 21.2438 29.0962 21.4651 29.048C21.843 28.9595 22.1605 28.8389 22.3415 28.6096C22.2209 28.4689 22.0722 28.2519 21.2679 28.2598C20.3554 28.2799 19.302 28.7864 18.7833 28.867C18.2647 28.9475 18.0397 29.0156 17.4606 28.8065C16.893 28.5953 16.8742 28.4557 16.8742 28.4557C16.8742 28.4557 16.2781 28.0388 16.0288 26.9761C15.7794 25.9133 16.0288 25.139 16.6762 24.403C16.845 24.2141 16.8047 24.0452 16.8047 24.0452C16.8047 24.0452 17.2309 23.4704 17.1143 22.9322C16.9857 22.3974 16.1615 22.506 16.1615 22.506L11.5905 23.3056H11.5902Z" fill="#6E6342"/>
<path fill-rule="evenodd" clip-rule="evenodd" d="M12.2778 25.0947C12.2423 25.1614 12.2257 25.2364 12.2296 25.3118C12.2375 25.4202 12.2698 25.5609 12.5953 25.8786C12.8728 26.1559 12.8123 26.4654 12.8123 26.4654C12.8123 26.4654 12.952 26.4935 13.331 26.3162C13.6286 26.1755 13.7285 26.4248 13.7285 26.4248C13.8151 26.3794 13.909 26.3495 14.006 26.3363C14.0938 26.3282 14.1788 26.3011 14.2551 26.2568C14.2551 26.2568 14.6049 26.6146 14.9105 26.7834C15.1879 26.9324 15.3488 27.0328 15.4856 26.9324C15.6141 26.8438 15.6141 26.6628 15.6059 26.5825C15.574 26.5084 15.5336 26.4383 15.4856 26.3734C15.397 26.2449 15.2563 26.096 15.247 25.9759C15.2269 25.6987 15.4561 25.3688 15.4076 25.2885C15.3591 25.2082 15.1787 25.188 14.7324 25.3489C14.2702 25.5015 12.2759 25.0955 12.2759 25.0955L12.2778 25.0947Z" fill="#39331F"/>
<path fill-rule="evenodd" clip-rule="evenodd" d="M13.3309 26.8918C13.3309 26.8918 13.1019 26.6748 13.1822 25.6214C13.2794 25.6199 13.3765 25.6294 13.4716 25.6494C13.4716 25.6494 13.5965 26.4657 13.3309 26.8918Z" fill="#292311"/>
<path fill-rule="evenodd" clip-rule="evenodd" d="M11.6989 22.5015C11.7309 22.4779 11.7605 22.4512 11.7874 22.422C11.7079 22.5707 11.3409 23.1656 11.6385 24.1025C11.9361 25.0351 12.6837 25.7305 13.6044 25.7628C14.5251 25.7951 15.009 25.3446 15.5623 24.6693C15.7794 24.4001 16.0288 24.0622 16.2498 23.8332C16.5795 23.4752 16.8368 23.3747 16.8368 23.0292C16.8368 22.3216 16.113 22.0038 15.0477 21.6863C13.9823 21.3688 13.0214 21.408 12.5229 21.6254C12.0366 21.8623 11.8275 22.1117 11.6987 22.5018L11.6989 22.5015Z" fill="#252211"/>
<path fill-rule="evenodd" clip-rule="evenodd" d="M15.1201 27.2094L15.1996 27.1691C15.1996 27.1691 15.2194 26.8511 15.3482 26.8595C15.4768 26.8797 15.5372 27.0488 15.525 27.1089C15.5171 27.1691 15.485 27.2698 15.3562 27.2576C15.1874 27.2616 15.1193 27.2094 15.1193 27.2094H15.1201Z" fill="#3F3824"/>
<path fill-rule="evenodd" clip-rule="evenodd" d="M14.7622 25.8585C14.7622 25.8585 14.8417 25.8304 14.939 25.9269C15.0185 25.9269 15.3651 25.8866 15.4738 25.955C15.5824 26.0234 15.6145 26.0835 15.6145 26.0835C15.6145 26.0835 15.2085 26.1721 14.9872 26.0835C14.7622 26.0072 14.7622 25.8585 14.7622 25.8585H14.7622Z" fill="#2D2815"/>
<path fill-rule="evenodd" clip-rule="evenodd" d="M16.5514 25.9186C16.5514 25.8985 16.3344 25.7498 16.1051 25.7013C16.0649 25.6934 16.0566 25.7215 16.0256 25.7215C16.0055 25.7135 15.9975 25.6531 15.9975 25.6531L15.8671 25.7217C15.8671 25.7217 15.847 25.7498 15.9154 25.8012C15.9755 25.8495 16.0762 25.8897 16.1043 25.97C16.1324 26.0503 16.1324 26.0784 16.1446 26.0906C16.1526 26.0986 16.2933 26.0906 16.3617 26.0503C16.43 26.0101 16.5588 25.9443 16.5506 25.9178L16.5514 25.9186Z" fill="#82764F"/>
<path fill-rule="evenodd" clip-rule="evenodd" d="M14.5211 26.7349C14.5211 26.7349 14.5611 26.4577 14.8307 26.4455C15.1079 26.4254 15.1603 26.6947 15.1603 26.6947L14.9995 26.8555C14.9995 26.8515 14.8789 26.6827 14.5224 26.7349H14.5211Z" fill="#2D2816"/>
<path fill-rule="evenodd" clip-rule="evenodd" d="M16.27 25.5407C16.27 25.5407 16.121 25.7016 15.7916 25.7498C15.7635 25.7095 15.7031 25.6292 15.7916 25.5007C15.8801 25.3722 15.9806 25.3319 16.081 25.3719C16.1715 25.3866 16.2452 25.4524 16.27 25.5407Z" fill="#574F35"/>
<path fill-rule="evenodd" clip-rule="evenodd" d="M16.8768 25.7379C16.885 25.6976 16.8569 25.6897 16.8768 25.6696C16.8967 25.6494 17.0056 25.6094 17.0258 25.6293C17.0337 25.6375 17.0258 25.6696 17.0258 25.7088C17.0258 25.748 17.0258 25.7883 17.0056 25.8172C16.9775 25.8575 16.8972 25.8776 16.8569 25.8657C16.8167 25.8537 16.8087 25.7973 16.8087 25.7862C16.8286 25.7782 16.8768 25.7581 16.8768 25.7379ZM17.5632 25.3038C17.5632 25.2837 17.6316 25.2434 17.6719 25.2434C17.732 25.2434 17.732 25.2916 17.7402 25.3038C17.7601 25.3118 17.7601 25.2956 17.7802 25.3319C17.8004 25.3682 17.8287 25.4324 17.8083 25.4726C17.7879 25.5129 17.7079 25.5408 17.688 25.5328C17.6599 25.5127 17.5714 25.3319 17.5632 25.3038Z" fill="#82764F"/>
<path fill-rule="evenodd" clip-rule="evenodd" d="M16.1814 25.8305C16.1814 25.8305 16.2699 25.8503 16.3905 25.951C16.3502 25.9791 16.2898 26.0112 16.2898 26.0112C16.2898 26.0112 16.2818 25.9187 16.1814 25.8302V25.8305Z" fill="#6E6342"/>
<path fill-rule="evenodd" clip-rule="evenodd" d="M15.9845 24.9458C15.9644 24.926 16.0447 24.8777 16.0929 24.8857C16.1411 24.8936 16.1613 24.926 16.2135 24.9339C16.2657 24.9419 16.2739 24.9138 16.293 24.8936C16.3121 24.8735 16.3815 24.8857 16.3934 24.8936C16.4009 24.9024 16.4076 24.9118 16.4136 24.9217C16.4153 24.8908 16.4298 24.862 16.4536 24.8422C16.4848 24.8193 16.5248 24.8118 16.5622 24.8221C16.5702 24.8502 16.6105 24.9506 16.6025 24.9707C16.5946 24.9909 16.474 25.0192 16.4536 24.9988C16.4737 25.0473 16.5622 25.1478 16.5742 25.1676C16.5861 25.1875 16.4856 25.236 16.4456 25.2281C16.3894 25.2241 16.0436 25.0229 15.9834 24.9466L15.9845 24.9458ZM16.5111 24.2785C16.5036 24.2582 16.4894 24.2412 16.4708 24.2303C16.4427 24.2223 16.3502 24.2303 16.3502 24.2785C16.3502 24.3267 16.4297 24.5965 16.519 24.737C16.6197 24.8777 16.6879 24.994 16.7562 25.0264C16.8008 25.0467 16.8534 25.0291 16.8768 24.9861C16.8848 24.9659 16.9049 24.8173 16.897 24.4675C16.889 24.1176 16.8768 23.78 16.8567 23.7599C16.8365 23.7397 16.7562 23.74 16.7281 23.78C16.7 23.82 16.519 24.2183 16.5108 24.2785H16.5111Z" fill="#585136"/>
<path fill-rule="evenodd" clip-rule="evenodd" d="M16.1533 26.3369C16.1533 26.3369 16.0126 26.2484 15.8758 26.3088C15.7473 26.3693 15.7552 26.6064 15.7552 26.6064C15.8139 26.6294 15.8802 26.6219 15.9323 26.5863C16.0208 26.5261 16.1331 26.4257 16.1533 26.3372V26.3369Z" fill="#574F35"/>
<path fill-rule="evenodd" clip-rule="evenodd" d="M16.4186 26.6547C16.4107 26.5752 16.3391 26.5752 16.3391 26.5341C16.3493 26.4937 16.3857 26.4655 16.4274 26.4657C16.4676 26.4657 16.5069 26.514 16.5562 26.5452C16.6044 26.5733 16.6767 26.6247 16.6847 26.686C16.6926 26.7472 16.6052 26.9149 16.5079 26.9149C16.4107 26.9149 16.4396 26.7339 16.4194 26.6536L16.4186 26.6547ZM17.1946 26.546C17.1946 26.546 17.0337 26.5943 17.0456 26.546C17.0576 26.4978 17.0941 26.4859 17.1464 26.4859C17.1729 26.4581 17.2086 26.4409 17.2468 26.4374C17.2687 26.4363 17.2901 26.4435 17.307 26.4575C17.307 26.4575 17.4156 26.4093 17.4477 26.4374C17.4797 26.4655 17.4559 26.4655 17.4758 26.4978C17.5011 26.5337 17.5177 26.575 17.5243 26.6184C17.5243 26.6504 17.4037 26.7188 17.307 26.7069C17.1946 26.6828 17.2145 26.5662 17.1946 26.546ZM18.1312 26.365C18.1312 26.365 18.1794 26.3931 18.1394 26.4255C18.1113 26.4536 17.9706 26.505 17.8497 26.514C17.7291 26.514 17.6208 26.5339 17.6208 26.4938C17.6208 26.4538 17.7212 26.3733 17.7814 26.3531C17.8058 26.3225 17.8429 26.3047 17.8821 26.3049C17.9303 26.3049 18.119 26.2847 18.1715 26.2768C18.2197 26.2686 18.26 26.2967 18.2316 26.337C18.2197 26.365 18.1312 26.365 18.1312 26.365ZM18.4086 25.1237C18.4086 25.1237 18.3482 25.2522 18.2801 25.2522C18.2117 25.2443 18.2117 25.2241 18.2117 25.204C18.2117 25.1759 18.2801 25.1035 18.2719 25.0834C18.252 25.0834 18.2035 25.0834 18.2117 25.0352C18.2117 24.9949 18.2801 24.9467 18.3403 24.9557C18.3857 24.9183 18.4423 24.8971 18.5011 24.8955C18.5695 24.8955 18.6297 24.9154 18.6297 24.9557C18.6297 24.9959 18.5502 25.0842 18.521 25.1046C18.4889 25.1367 18.4487 25.1576 18.4086 25.1245V25.1237ZM17.492 27.4996C17.492 27.4996 17.4124 27.5078 17.4124 27.5478C17.4124 27.5679 17.4323 27.5679 17.4607 27.556C17.477 27.5551 17.4932 27.5523 17.5089 27.5478C17.5169 27.556 17.5169 27.596 17.5773 27.596C17.6269 27.5893 17.6747 27.5729 17.718 27.5478C17.7662 27.5279 17.8065 27.5075 17.8065 27.4683C17.7864 27.3999 17.7461 27.3676 17.6859 27.3676C17.6551 27.3656 17.6244 27.3726 17.5974 27.3877C17.5974 27.3877 17.5773 27.3474 17.5089 27.3877C17.4405 27.428 17.4485 27.428 17.4686 27.4481C17.5047 27.4802 17.4927 27.5011 17.4927 27.5011L17.492 27.4996ZM17.0377 27.9178C17.0377 27.8976 17.1381 27.8573 17.1662 27.8695C17.1943 27.8775 17.2746 28.0301 17.2746 28.0463C17.2746 28.0664 17.1742 28.1147 17.1339 28.1147C17.0936 28.1147 17.0255 28.0463 17.0255 28.0352C17.0255 28.0272 17.0737 28.0153 17.0737 28.0071C17.0857 27.9872 17.0377 27.9387 17.0377 27.9186V27.9178ZM16.7197 27.3308C16.7398 27.3228 16.7398 27.3027 16.7679 27.2825C16.7858 27.2707 16.8081 27.2677 16.8284 27.2746C16.8427 27.249 16.8678 27.2312 16.8967 27.2261C16.945 27.2181 16.9852 27.2261 16.9762 27.2462C16.9762 27.3066 17.0165 27.3467 17.0165 27.3949C17.0165 27.4431 16.9884 27.5036 16.888 27.5438C16.7875 27.5719 16.6508 27.5719 16.6306 27.564C16.6105 27.556 16.5904 27.4755 16.6105 27.4352C16.6306 27.3949 16.6868 27.3509 16.7192 27.3308H16.7197Z" fill="#82764F"/>
<path fill-rule="evenodd" clip-rule="evenodd" d="M16.8477 27.358C16.8477 27.358 16.7793 27.3983 16.7793 27.4185C16.7733 27.4379 16.7706 27.4583 16.7714 27.4786C16.7714 27.4905 16.8599 27.4707 16.8718 27.4585C16.8758 27.4505 16.8477 27.379 16.8477 27.358Z" fill="#6E6342"/>
<path fill-rule="evenodd" clip-rule="evenodd" d="M16.2498 27.1691C16.2899 27.1773 16.3582 27.1691 16.4104 27.1892C16.4507 27.2094 16.4788 27.2497 16.4385 27.2979C16.3983 27.3461 16.359 27.4185 16.2697 27.4063C16.1693 27.3983 16.0728 27.3461 16.0728 27.3058C16.0694 27.2544 16.0868 27.2037 16.121 27.1651C16.1613 27.133 16.1812 27.1532 16.2496 27.1691H16.2498Z" fill="#585136"/>
<path fill-rule="evenodd" clip-rule="evenodd" d="M16.2015 27.2092C16.2015 27.2092 16.073 27.3097 16.0407 27.3582C16.0004 27.4064 15.8035 27.6555 15.7433 27.7077C15.7633 27.6725 15.7861 27.6389 15.8114 27.6073C15.7319 27.6581 15.6723 27.7348 15.6426 27.8243C15.5944 27.9733 15.9121 28.0536 16.121 28.114C16.3298 28.1744 16.4106 28.1935 16.4106 28.1935C16.3337 28.078 16.2677 27.9555 16.2135 27.8278C16.134 27.6388 16.0929 27.6187 16.1451 27.5302C16.1854 27.4416 16.2458 27.3815 16.2458 27.3131C16.2217 27.2495 16.2015 27.2092 16.2015 27.2092Z" fill="#574F35"/>
<path fill-rule="evenodd" clip-rule="evenodd" d="M11.6183 27.5271C11.6476 27.5325 11.6776 27.5325 11.7068 27.5271C11.767 27.5189 12.3943 27.2886 13.0497 27.3299C13.5403 27.3596 14.0266 27.4395 14.5009 27.5684C15.3251 27.7855 16.3502 28.2156 17.0135 28.461C17.1903 28.5291 17.3634 28.65 17.4906 28.6979C17.9973 28.8951 18.0172 28.8951 18.3148 28.9473C18.6646 28.9955 19.0224 28.8789 19.3963 28.7986C19.8545 28.6979 20.6385 28.6497 21.3259 28.5493C21.5482 28.5184 21.7675 28.4687 21.9813 28.4006C21.9813 28.4006 21.4346 28.9473 20.1238 29.1442C19.594 29.2247 19.0556 29.2315 18.5239 29.1644C18.1057 29.1241 17.8285 29.0637 17.6194 29.0035C17.3822 28.9351 16.8956 28.7541 16.2967 28.606C15.8785 28.4973 15.412 28.417 14.8775 28.3166C13.5588 28.0751 12.1277 27.7979 11.6178 27.5287L11.6183 27.5271Z" fill="#252211"/>
<path fill-rule="evenodd" clip-rule="evenodd" d="M10.1388 25.0426C9.82077 25.3119 9.48341 25.5692 9.15399 25.8183L8.16097 26.5813C7.82334 26.8304 7.49366 27.0877 7.15576 27.3371C6.81786 27.5865 6.4805 27.8234 6.12219 28.0527C6.44021 27.7834 6.77758 27.534 7.11521 27.2889C7.45284 27.0437 7.80293 26.8034 8.12864 26.5548L9.12166 25.7907C9.46326 25.5416 9.79294 25.2843 10.1388 25.0431V25.0426ZM8.382 27.8568C8.382 27.8568 8.73977 27.5592 9.18606 27.1412C9.74074 26.6229 10.4202 25.9593 10.6373 25.8389L8.38173 27.857L8.382 27.8568Z" fill="#CFB66C"/>
<path fill-rule="evenodd" clip-rule="evenodd" d="M8.38196 27.8565C8.55899 27.6798 8.74795 27.507 8.9369 27.3379L9.2263 27.0888C9.31482 27.0093 9.41552 26.92 9.50378 26.8314C9.68054 26.6547 9.8536 26.4654 10.0304 26.2847C10.118 26.1938 10.2106 26.1079 10.3078 26.0274C10.3564 25.9844 10.4104 25.9478 10.4684 25.9187C10.5169 25.8906 10.5691 25.8392 10.6373 25.8302C10.5972 25.8906 10.549 25.9187 10.5087 25.9709C10.4605 26.0112 10.4202 26.0594 10.3802 26.0995C10.2917 26.188 10.1912 26.2683 10.1027 26.3488C9.91376 26.5097 9.71685 26.6669 9.52789 26.8351C9.33894 27.0034 9.16217 27.185 8.97295 27.3538C8.76809 27.5268 8.57913 27.6957 8.38196 27.8573V27.8565ZM10.7862 26.2484C10.7862 26.2484 9.4757 27.5311 9.20617 27.7399L10.7862 26.2484Z" fill="#CFB66C"/>
<path fill-rule="evenodd" clip-rule="evenodd" d="M10.7862 26.2484C10.6683 26.3849 10.5419 26.5138 10.4078 26.6343L10.0102 27.0122C9.88171 27.1407 9.76086 27.2695 9.62437 27.3981C9.48365 27.5186 9.35512 27.6366 9.20618 27.7479L9.59204 27.37C9.72084 27.2414 9.86156 27.133 9.99831 27.0042L10.3842 26.6263C10.5167 26.4938 10.6455 26.365 10.7862 26.2484ZM10.8464 26.9438C10.7256 27.2809 10.5832 27.6099 10.4202 27.9288C10.0826 28.6044 9.57612 29.4484 9.35483 29.8788L10.8464 26.9438Z" fill="#CFB66C"/>
<path fill-rule="evenodd" clip-rule="evenodd" d="M10.8464 26.944C10.8464 27.0926 10.8061 27.2214 10.7579 27.35C10.7109 27.4786 10.6573 27.6048 10.5973 27.7279C10.5369 27.8485 10.4685 27.9773 10.4001 28.0939C10.3318 28.2105 10.2515 28.3308 10.191 28.4517L9.78503 29.1672C9.64431 29.4057 9.50756 29.6456 9.35889 29.8748C9.45933 29.6175 9.59608 29.3763 9.72488 29.1391C9.8656 28.9006 9.99413 28.6621 10.1224 28.4153C10.185 28.2924 10.2414 28.1664 10.2912 28.0377C10.3514 27.9089 10.4115 27.7883 10.46 27.6717C10.5202 27.5432 10.5684 27.4223 10.6288 27.306C10.697 27.1812 10.7534 27.0606 10.8459 26.944L10.8464 26.944Z" fill="#CFB66C"/>
<path fill-rule="evenodd" clip-rule="evenodd" d="M12.2777 30.2406C12.2777 30.2406 11.8802 30.7672 11.9199 31.4345C12.0283 31.0849 12.165 30.5501 12.2777 30.2406ZM12.6557 30.7685C12.6557 30.7685 12.5149 32.1996 12.3983 32.9032C12.5632 32.0899 12.5952 32.1583 12.6557 30.7685ZM15.2888 32.9877C15.2888 32.9877 14.6939 34.7369 14.6817 35.2229C14.8105 34.7231 15.0596 33.702 15.2888 32.9864V32.9877Z" fill="#DEC270"/>
<path fill-rule="evenodd" clip-rule="evenodd" d="M16.6799 30.1324C16.6799 30.1324 17.6449 31.7244 18.3686 33.0831C18.1728 32.3994 17.7222 31.1453 16.6799 30.1324Z" fill="#CBAF59"/>
<path fill-rule="evenodd" clip-rule="evenodd" d="M19.2731 32.476C19.8029 33.4124 20.2806 34.3774 20.7042 35.3665C20.6239 34.683 20.4065 33.5132 19.2731 32.476Z" fill="#E3C677"/>
<path fill-rule="evenodd" clip-rule="evenodd" d="M26.8955 34.8233C27.0561 34.7229 27.3739 34.1759 27.6513 34.0394C27.9285 33.8987 28.1376 33.8706 28.387 33.5931C28.6361 33.3034 28.705 33.1267 29.2512 32.8977C30.0153 32.5677 29.4898 32.1416 29.4898 32.1416C29.5739 32.0589 29.6639 31.9824 29.759 31.9126C29.9562 31.7639 30.1852 31.5829 30.1653 31.2652C30.1372 30.7306 30.0368 29.9547 29.5984 29.5044C30.0246 29.4159 30.8406 29.3557 31.3475 29.2272C31.9343 29.0783 32.2038 28.8692 32.2038 28.8692C32.2038 28.8692 31.8662 28.2943 32.4129 27.7155C32.9596 27.1367 33.4059 26.7909 33.7356 26.1435C33.3577 26.0952 32.7815 25.8943 31.3112 26.453C31.3906 26.4903 31.4672 26.5333 31.5405 26.5815C31.5405 26.5815 30.636 26.8309 30.3063 27.1084C29.7312 27.5947 29.6588 27.9927 29.0358 28.2904C28.4127 28.588 27.7854 28.5074 27.2671 28.7486C26.7487 28.9897 26.6721 29.1949 26.4829 29.2834C26.5232 29.3316 26.4749 29.4119 26.5513 29.4803C26.503 29.5487 26.2216 30.0069 25.9361 30.0069C25.9642 30.1155 26.2054 30.1958 26.2054 30.1958C26.2054 30.1958 26.0286 30.3246 25.5784 30.3567C25.8073 30.5952 26.0247 30.8552 26.6236 31.2331C26.5754 31.3336 26.3742 31.4825 26.4548 31.6714C26.5433 31.8604 26.7728 32.1177 27.689 32.3268C27.2225 32.3467 26.6761 32.4554 25.9399 32.3549C25.2042 32.2664 25.0836 32.2142 24.6293 32.3268C24.6776 32.3751 24.8061 32.3751 24.9187 32.5036C24.7982 32.5116 24.0423 32.4151 23.785 32.753C23.5157 33.1025 23.3991 33.6776 23.4193 34.0635C23.2786 34.1319 23.1418 34.2525 23.2102 34.5018C23.2786 34.7512 23.6363 34.8315 23.8656 34.9881C24.0945 35.157 24.1147 35.2171 24.332 35.1771C24.561 35.1289 24.8986 34.8999 25.0958 34.8999C25.2929 34.8999 25.4334 35.0486 25.4334 35.0486C25.4334 35.0486 25.9682 34.7912 26.0204 34.8395C26.0687 34.8877 26.0284 35.1972 26.0806 35.2455C26.1336 35.2818 26.736 34.924 26.8968 34.8233H26.8955Z" fill="#ECD592"/>
<path fill-rule="evenodd" clip-rule="evenodd" d="M38.5825 18.7346C36.0699 12.2459 29.8584 11.0438 29.8584 11.0438H12.137L12.2054 17.6531H15.7346V32.4116H12.1367V39.009H29.3679C33.5207 39.009 36.8496 34.8357 36.8496 34.8357C42.1804 27.2698 38.5823 18.7346 38.5823 18.7346H38.5825ZM29.4604 30.3892C29.4604 30.3892 28.1088 32.3392 26.6382 32.3392H23.6965L23.6268 17.6692H27.402C27.402 17.6692 29.1511 18.0349 30.3731 21.4963C30.3731 21.4963 31.9931 26.4521 29.4604 30.3892Z" fill="white" fill-opacity="0.8"/>
</svg>
