<svg width="49" height="49" viewBox="0 0 49 49" fill="none" xmlns="http://www.w3.org/2000/svg">
<circle cx="24.7042" cy="24.2959" r="21.8458" fill="white"/>
<path fill-rule="evenodd" clip-rule="evenodd" d="M0 24.5C0 10.969 10.969 0 24.4999 0H24.6423C31.1212 0.0188523 37.3272 2.61069 41.8952 7.20534C46.4631 11.8 49.0187 18.0211 48.9998 24.5C48.9998 38.031 38.0308 49 24.4999 49C10.969 49 0 38.031 0 24.5ZM22.3643 33.9321L24.9152 25.3305L28.8897 24.2033L29.7202 21.3559L25.805 22.5423L29.9575 8.42367V8.19825C29.9513 8.01571 29.8728 7.84311 29.7393 7.71849C29.6058 7.59387 29.4282 7.52744 29.2457 7.53384H23.966C23.5547 7.52116 23.1877 7.79031 23.0762 8.18638L18.1525 24.9152L14.2372 26.1016L13.3474 28.8305L17.2627 27.644L13.7627 39.5677H34.6439C35.0566 39.5848 35.426 39.3139 35.5338 38.9152L36.7202 34.822V34.5966C36.714 34.414 36.6355 34.2414 36.502 34.1168C36.3685 33.9922 36.1909 33.9257 36.0083 33.9321H22.3643Z" fill="#345D9D"/>
</svg>
